<svg version="1.1" xmlns="http://www.w3.org/2000/svg" viewBox="0 0 772.5006153052052 255" width="772.5006153052052" height="255">
  <!-- svg-source:excalidraw -->
  
  <defs>
    <style class="style-fonts">
      @font-face {
        font-family: "Virgil";
        src: url("https://excalidraw.com/Virgil.woff2");
      }
      @font-face {
        font-family: "Cascadia";
        src: url("https://excalidraw.com/Cascadia.woff2");
      }
    </style>
  </defs>
  <rect x="0" y="0" width="772.5006153052052" height="255" fill="#ffffff"></rect><g stroke-linecap="round"><g transform="translate(11.39125246848505 92.5) rotate(0 -0.36898673416845895 41.29286917103451)"><path d="M0.07 0.39 C0.12 14.27, 0.62 69.46, 0.65 83.03 M-1.35 -0.44 C-1.52 13.14, -1.17 67.53, -0.48 81.45" stroke="#000000" stroke-width="4" fill="none"></path></g></g><mask></mask><g stroke-linecap="round"><g transform="translate(13.39125246848505 176.5) rotate(0 14.648798189181832 -0.7027227738099668)"><path d="M0.18 -0.3 C5.08 -0.33, 25.15 -1.25, 30.48 -1.3 M-1.18 -1.51 C3.41 -1.25, 23.72 0.29, 29.26 0.08" stroke="#000000" stroke-width="4" fill="none"></path></g></g><mask></mask><g stroke-linecap="round"><g transform="translate(12.742454279303274 94.20272277380991) rotate(0 14.648798189181832 -0.7027227738099668)"><path d="M0.18 -0.3 C5.08 -0.33, 25.15 -1.25, 30.48 -1.3 M-1.18 -1.51 C3.41 -1.25, 23.72 0.29, 29.26 0.08" stroke="#000000" stroke-width="4" fill="none"></path></g></g><mask></mask><g stroke-linecap="round"><g transform="translate(761.8473363050571 92.67147372524914) rotate(0 -0.3689867341684021 41.29286917103451)"><path d="M0.07 0.39 C0.12 14.27, 0.62 69.46, 0.65 83.03 M-1.35 -0.44 C-1.52 13.14, -1.17 67.53, -0.48 81.45" stroke="#000000" stroke-width="4" fill="none"></path></g></g><mask></mask><g stroke-linecap="round"><g transform="translate(731.8473363050571 175.67147372524914) rotate(0 14.648798189181889 -0.7027227738099668)"><path d="M0.18 -0.3 C5.08 -0.33, 25.15 -1.25, 30.48 -1.3 M-1.18 -1.51 C3.41 -1.25, 23.72 0.29, 29.26 0.08" stroke="#000000" stroke-width="4" fill="none"></path></g></g><mask></mask><g stroke-linecap="round"><g transform="translate(730.1985381158752 93.37419649905905) rotate(0 14.648798189181889 -0.7027227738099668)"><path d="M0.18 -0.3 C5.08 -0.33, 25.15 -1.25, 30.48 -1.3 M-1.18 -1.51 C3.41 -1.25, 23.72 0.29, 29.26 0.08" stroke="#000000" stroke-width="4" fill="none"></path></g></g><mask></mask><g stroke-linecap="round" transform="translate(57.391252468484936 94.5) rotate(0 38 39)"><path d="M36.04 0.01 C42.95 -0.6, 52.72 2.81, 59.14 7 C65.56 11.2, 71.9 18.07, 74.57 25.2 C77.25 32.33, 77.37 42.46, 75.19 49.79 C73.02 57.11, 67.47 64.57, 61.52 69.14 C55.57 73.71, 46.88 77.02, 39.49 77.2 C32.1 77.37, 23.56 74.27, 17.18 70.18 C10.81 66.09, 3.74 59.63, 1.25 52.65 C-1.23 45.67, 0.09 35.74, 2.27 28.32 C4.45 20.89, 7.69 12.72, 14.33 8.11 C20.98 3.51, 36.83 1.64, 42.15 0.68 C47.47 -0.29, 46.29 1.88, 46.25 2.32 M55.58 4.68 C62.08 7.32, 68.39 14.1, 71.47 20.83 C74.56 27.56, 75 37.16, 74.1 45.04 C73.2 52.92, 71.19 62.92, 66.05 68.12 C60.91 73.32, 50.65 75.42, 43.26 76.24 C35.87 77.05, 28.23 76.29, 21.71 73.01 C15.18 69.74, 7.42 63.41, 4.11 56.59 C0.79 49.77, 0.64 39.6, 1.81 32.09 C2.98 24.58, 6.08 16.98, 11.14 11.55 C16.2 6.11, 24.86 0.69, 32.17 -0.55 C39.47 -1.79, 50.98 3.09, 54.98 4.12 C58.98 5.15, 56.58 5.23, 56.18 5.63" stroke="#000000" stroke-width="1" fill="none"></path></g><g transform="translate(90.64319643134536 110.92283553372465) rotate(0 4.877998352050781 22.5)"><text x="4.877998352050781" y="0" font-family="Virgil, Segoe UI Emoji" font-size="36px" fill="#000000" text-anchor="middle" style="white-space: pre;" direction="ltr" dominant-baseline="text-before-edge">1</text></g><g stroke-linecap="round" transform="translate(155.39125246848494 94.5) rotate(0 38 39)"><path d="M36.04 0.01 C42.95 -0.6, 52.72 2.81, 59.14 7 C65.56 11.2, 71.9 18.07, 74.57 25.2 C77.25 32.33, 77.37 42.46, 75.19 49.79 C73.02 57.11, 67.47 64.57, 61.52 69.14 C55.57 73.71, 46.88 77.02, 39.49 77.2 C32.1 77.37, 23.56 74.27, 17.18 70.18 C10.81 66.09, 3.74 59.63, 1.25 52.65 C-1.23 45.67, 0.09 35.74, 2.27 28.32 C4.45 20.89, 7.69 12.72, 14.33 8.11 C20.98 3.51, 36.83 1.64, 42.15 0.68 C47.47 -0.29, 46.29 1.88, 46.25 2.32 M55.58 4.68 C62.08 7.32, 68.39 14.1, 71.47 20.83 C74.56 27.56, 75 37.16, 74.1 45.04 C73.2 52.92, 71.19 62.92, 66.05 68.12 C60.91 73.32, 50.65 75.42, 43.26 76.24 C35.87 77.05, 28.23 76.29, 21.71 73.01 C15.18 69.74, 7.42 63.41, 4.11 56.59 C0.79 49.77, 0.64 39.6, 1.81 32.09 C2.98 24.58, 6.08 16.98, 11.14 11.55 C16.2 6.11, 24.86 0.69, 32.17 -0.55 C39.47 -1.79, 50.98 3.09, 54.98 4.12 C58.98 5.15, 56.58 5.23, 56.18 5.63" stroke="#000000" stroke-width="1" fill="none"></path></g><g transform="translate(180.70520052070083 110.92283553372465) rotate(0 12.815994262695312 22.5)"><text x="12.815994262695312" y="0" font-family="Virgil, Segoe UI Emoji" font-size="36px" fill="#000000" text-anchor="middle" style="white-space: pre;" direction="ltr" dominant-baseline="text-before-edge">2</text></g><g stroke-linecap="round" transform="translate(252.39125246848494 94.5) rotate(0 38 39)"><path d="M36.04 0.01 C42.95 -0.6, 52.72 2.81, 59.14 7 C65.56 11.2, 71.9 18.07, 74.57 25.2 C77.25 32.33, 77.37 42.46, 75.19 49.79 C73.02 57.11, 67.47 64.57, 61.52 69.14 C55.57 73.71, 46.88 77.02, 39.49 77.2 C32.1 77.37, 23.56 74.27, 17.18 70.18 C10.81 66.09, 3.74 59.63, 1.25 52.65 C-1.23 45.67, 0.09 35.74, 2.27 28.32 C4.45 20.89, 7.69 12.72, 14.33 8.11 C20.98 3.51, 36.83 1.64, 42.15 0.68 C47.47 -0.29, 46.29 1.88, 46.25 2.32 M55.58 4.68 C62.08 7.32, 68.39 14.1, 71.47 20.83 C74.56 27.56, 75 37.16, 74.1 45.04 C73.2 52.92, 71.19 62.92, 66.05 68.12 C60.91 73.32, 50.65 75.42, 43.26 76.24 C35.87 77.05, 28.23 76.29, 21.71 73.01 C15.18 69.74, 7.42 63.41, 4.11 56.59 C0.79 49.77, 0.64 39.6, 1.81 32.09 C2.98 24.58, 6.08 16.98, 11.14 11.55 C16.2 6.11, 24.86 0.69, 32.17 -0.55 C39.47 -1.79, 50.98 3.09, 54.98 4.12 C58.98 5.15, 56.58 5.23, 56.18 5.63" stroke="#000000" stroke-width="1" fill="none"></path></g><g transform="translate(278.2631991779274 110.92283553372465) rotate(0 12.25799560546875 22.5)"><text x="12.25799560546875" y="0" font-family="Virgil, Segoe UI Emoji" font-size="36px" fill="#000000" text-anchor="middle" style="white-space: pre;" direction="ltr" dominant-baseline="text-before-edge">3</text></g><g stroke-linecap="round" transform="translate(351.39125246848494 93.5) rotate(0 38 39)"><path d="M36.04 0.01 C42.95 -0.6, 52.72 2.81, 59.14 7 C65.56 11.2, 71.9 18.07, 74.57 25.2 C77.25 32.33, 77.37 42.46, 75.19 49.79 C73.02 57.11, 67.47 64.57, 61.52 69.14 C55.57 73.71, 46.88 77.02, 39.49 77.2 C32.1 77.37, 23.56 74.27, 17.18 70.18 C10.81 66.09, 3.74 59.63, 1.25 52.65 C-1.23 45.67, 0.09 35.74, 2.27 28.32 C4.45 20.89, 7.69 12.72, 14.33 8.11 C20.98 3.51, 36.83 1.64, 42.15 0.68 C47.47 -0.29, 46.29 1.88, 46.25 2.32 M55.58 4.68 C62.08 7.32, 68.39 14.1, 71.47 20.83 C74.56 27.56, 75 37.16, 74.1 45.04 C73.2 52.92, 71.19 62.92, 66.05 68.12 C60.91 73.32, 50.65 75.42, 43.26 76.24 C35.87 77.05, 28.23 76.29, 21.71 73.01 C15.18 69.74, 7.42 63.41, 4.11 56.59 C0.79 49.77, 0.64 39.6, 1.81 32.09 C2.98 24.58, 6.08 16.98, 11.14 11.55 C16.2 6.11, 24.86 0.69, 32.17 -0.55 C39.47 -1.79, 50.98 3.09, 54.98 4.12 C58.98 5.15, 56.58 5.23, 56.18 5.63" stroke="#000000" stroke-width="1" fill="none"></path></g><g transform="translate(378.00119814032973 109.92283553372465) rotate(0 11.519996643066406 22.5)"><text x="11.519996643066406" y="0" font-family="Virgil, Segoe UI Emoji" font-size="36px" fill="#000000" text-anchor="middle" style="white-space: pre;" direction="ltr" dominant-baseline="text-before-edge">4</text></g><g stroke-linecap="round" transform="translate(447.39125246848494 93.5) rotate(0 38 39)"><path d="M36.04 0.01 C42.95 -0.6, 52.72 2.81, 59.14 7 C65.56 11.2, 71.9 18.07, 74.57 25.2 C77.25 32.33, 77.37 42.46, 75.19 49.79 C73.02 57.11, 67.47 64.57, 61.52 69.14 C55.57 73.71, 46.88 77.02, 39.49 77.2 C32.1 77.37, 23.56 74.27, 17.18 70.18 C10.81 66.09, 3.74 59.63, 1.25 52.65 C-1.23 45.67, 0.09 35.74, 2.27 28.32 C4.45 20.89, 7.69 12.72, 14.33 8.11 C20.98 3.51, 36.83 1.64, 42.15 0.68 C47.47 -0.29, 46.29 1.88, 46.25 2.32 M55.58 4.68 C62.08 7.32, 68.39 14.1, 71.47 20.83 C74.56 27.56, 75 37.16, 74.1 45.04 C73.2 52.92, 71.19 62.92, 66.05 68.12 C60.91 73.32, 50.65 75.42, 43.26 76.24 C35.87 77.05, 28.23 76.29, 21.71 73.01 C15.18 69.74, 7.42 63.41, 4.11 56.59 C0.79 49.77, 0.64 39.6, 1.81 32.09 C2.98 24.58, 6.08 16.98, 11.14 11.55 C16.2 6.11, 24.86 0.69, 32.17 -0.55 C39.47 -1.79, 50.98 3.09, 54.98 4.12 C58.98 5.15, 56.58 5.23, 56.18 5.63" stroke="#000000" stroke-width="1" fill="none"></path></g><g transform="translate(474.39720186347427 109.92283553372465) rotate(0 11.123992919921875 22.5)"><text x="11.123992919921875" y="0" font-family="Virgil, Segoe UI Emoji" font-size="36px" fill="#000000" text-anchor="middle" style="white-space: pre;" direction="ltr" dominant-baseline="text-before-edge">5</text></g><g stroke-linecap="round" transform="translate(544.3912524684849 94.5) rotate(0 38 39)"><path d="M36.04 0.01 C42.95 -0.6, 52.72 2.81, 59.14 7 C65.56 11.2, 71.9 18.07, 74.57 25.2 C77.25 32.33, 77.37 42.46, 75.19 49.79 C73.02 57.11, 67.47 64.57, 61.52 69.14 C55.57 73.71, 46.88 77.02, 39.49 77.2 C32.1 77.37, 23.56 74.27, 17.18 70.18 C10.81 66.09, 3.74 59.63, 1.25 52.65 C-1.23 45.67, 0.09 35.74, 2.27 28.32 C4.45 20.89, 7.69 12.72, 14.33 8.11 C20.98 3.51, 36.83 1.64, 42.15 0.68 C47.47 -0.29, 46.29 1.88, 46.25 2.32 M55.58 4.68 C62.08 7.32, 68.39 14.1, 71.47 20.83 C74.56 27.56, 75 37.16, 74.1 45.04 C73.2 52.92, 71.19 62.92, 66.05 68.12 C60.91 73.32, 50.65 75.42, 43.26 76.24 C35.87 77.05, 28.23 76.29, 21.71 73.01 C15.18 69.74, 7.42 63.41, 4.11 56.59 C0.79 49.77, 0.64 39.6, 1.81 32.09 C2.98 24.58, 6.08 16.98, 11.14 11.55 C16.2 6.11, 24.86 0.69, 32.17 -0.55 C39.47 -1.79, 50.98 3.09, 54.98 4.12 C58.98 5.15, 56.58 5.23, 56.18 5.63" stroke="#000000" stroke-width="1" fill="none"></path></g><g transform="translate(571.0011981403297 110.92283553372465) rotate(0 11.519996643066406 22.5)"><text x="11.519996643066406" y="0" font-family="Virgil, Segoe UI Emoji" font-size="36px" fill="#000000" text-anchor="middle" style="white-space: pre;" direction="ltr" dominant-baseline="text-before-edge">6</text></g><g stroke-linecap="round" transform="translate(636.3912524684849 94.5) rotate(0 38 39)"><path d="M36.04 0.01 C42.95 -0.6, 52.72 2.81, 59.14 7 C65.56 11.2, 71.9 18.07, 74.57 25.2 C77.25 32.33, 77.37 42.46, 75.19 49.79 C73.02 57.11, 67.47 64.57, 61.52 69.14 C55.57 73.71, 46.88 77.02, 39.49 77.2 C32.1 77.37, 23.56 74.27, 17.18 70.18 C10.81 66.09, 3.74 59.63, 1.25 52.65 C-1.23 45.67, 0.09 35.74, 2.27 28.32 C4.45 20.89, 7.69 12.72, 14.33 8.11 C20.98 3.51, 36.83 1.64, 42.15 0.68 C47.47 -0.29, 46.29 1.88, 46.25 2.32 M55.58 4.68 C62.08 7.32, 68.39 14.1, 71.47 20.83 C74.56 27.56, 75 37.16, 74.1 45.04 C73.2 52.92, 71.19 62.92, 66.05 68.12 C60.91 73.32, 50.65 75.42, 43.26 76.24 C35.87 77.05, 28.23 76.29, 21.71 73.01 C15.18 69.74, 7.42 63.41, 4.11 56.59 C0.79 49.77, 0.64 39.6, 1.81 32.09 C2.98 24.58, 6.08 16.98, 11.14 11.55 C16.2 6.11, 24.86 0.69, 32.17 -0.55 C39.47 -1.79, 50.98 3.09, 54.98 4.12 C58.98 5.15, 56.58 5.23, 56.18 5.63" stroke="#000000" stroke-width="1" fill="none"></path></g><g transform="translate(664.837196675486 110.92283553372465) rotate(0 9.683998107910156 22.5)"><text x="9.683998107910156" y="0" font-family="Virgil, Segoe UI Emoji" font-size="36px" fill="#000000" text-anchor="middle" style="white-space: pre;" direction="ltr" dominant-baseline="text-before-edge">7</text></g><g stroke-linecap="round"><g transform="translate(142.39125246848494 156.5) rotate(0 3.498202868243709 5.019932344648964)"><path d="M0.17 0.89 C1.45 2.43, 7.25 6.97, 8.2 8.47 M-1.2 0.31 C-0.01 2.08, 6.31 8.44, 7.88 9.73" stroke="#000000" stroke-width="4" fill="none"></path></g></g><mask></mask><g stroke-linecap="round"><g transform="translate(241.89304960024128 159.48006765535115) rotate(0 3.498202868243652 5.019932344648964)"><path d="M0.17 0.89 C1.45 2.43, 7.25 6.97, 8.2 8.47 M-1.2 0.31 C-0.01 2.08, 6.31 8.44, 7.88 9.73" stroke="#000000" stroke-width="4" fill="none"></path></g></g><mask></mask><g stroke-linecap="round"><g transform="translate(341.89304960024106 163.48006765535115) rotate(0 3.498202868243652 5.019932344648964)"><path d="M0.17 0.89 C1.45 2.43, 7.25 6.97, 8.2 8.47 M-1.2 0.31 C-0.01 2.08, 6.31 8.44, 7.88 9.73" stroke="#000000" stroke-width="4" fill="none"></path></g></g><mask></mask><g stroke-linecap="round"><g transform="translate(435.89304960024106 160.48006765535115) rotate(0 3.498202868243652 5.019932344648964)"><path d="M0.17 0.89 C1.45 2.43, 7.25 6.97, 8.2 8.47 M-1.2 0.31 C-0.01 2.08, 6.31 8.44, 7.88 9.73" stroke="#000000" stroke-width="4" fill="none"></path></g></g><mask></mask><g stroke-linecap="round"><g transform="translate(533.893049600241 165.48006765535115) rotate(0 3.498202868243652 5.019932344648964)"><path d="M0.17 0.89 C1.45 2.43, 7.25 6.97, 8.2 8.47 M-1.2 0.31 C-0.01 2.08, 6.31 8.44, 7.88 9.73" stroke="#000000" stroke-width="4" fill="none"></path></g></g><mask></mask><g stroke-linecap="round"><g transform="translate(630.893049600241 164.48006765535115) rotate(0 3.498202868243652 5.019932344648964)"><path d="M0.17 0.89 C1.45 2.43, 7.25 6.97, 8.2 8.47 M-1.2 0.31 C-0.01 2.08, 6.31 8.44, 7.88 9.73" stroke="#000000" stroke-width="4" fill="none"></path></g></g><mask></mask><g mask="url(#mask-R7u1EvQ3_ZKNbxCaIeu1k)" stroke-linecap="round"><g transform="translate(291.39125246848494 81.5) rotate(0 140.74079143367715 -27.093508084034454)"><path d="M-1.17 0.01 C22 -9.09, 91.11 -53.91, 138.42 -54.19 C185.72 -54.48, 258.55 -10.55, 282.65 -1.72 M0.42 -1.03 C24.03 -9.98, 93.86 -52.89, 140.82 -52.76 C187.79 -52.63, 258.4 -8.49, 282.22 -0.26" stroke="#000000" stroke-width="1" fill="none"></path></g><g transform="translate(291.39125246848494 81.5) rotate(0 140.74079143367715 -27.093508084034454)"><path d="M252.35 -3.8 C259.61 -0.81, 267.98 0.38, 283.52 -2.19 M252.61 -3.77 C262.36 -0.87, 270.84 -1.18, 283.2 -0.14" stroke="#000000" stroke-width="1" fill="none"></path></g><g transform="translate(291.39125246848494 81.5) rotate(0 140.74079143367715 -27.093508084034454)"><path d="M260.99 -22.41 C266.12 -14.78, 272.3 -8.86, 283.52 -2.19 M261.25 -22.38 C268.16 -13.48, 273.83 -7.74, 283.2 -0.14" stroke="#000000" stroke-width="1" fill="none"></path></g></g><mask id="mask-R7u1EvQ3_ZKNbxCaIeu1k"><rect x="0" y="0" fill="#fff" width="673.3912524684849" height="235.5"></rect><rect x="361.9872912868443" y="10" fill="#000" width="136.80792236328125" height="35" opacity="1"></rect></mask><g transform="translate(361.9872912868443 10) rotate(0 70.14475261531777 44.406491915965546)"><text x="68.40396118164062" y="0" font-family="Virgil, Segoe UI Emoji" font-size="28px" fill="#000000" text-anchor="middle" style="white-space: pre;" direction="ltr" dominant-baseline="text-before-edge">Left Child</text></g><g mask="url(#mask-hLtjyeUE34GrkujAq-u5_)" stroke-linecap="round"><g transform="translate(293.39125246848494 177.5) rotate(0 190.83398196063933 25.588413094774637)"><path d="M-0.86 0.55 C30.22 8.93, 122.06 49.67, 185.95 49.9 C249.85 50.13, 349.89 9.94, 382.53 1.94 M0.89 -0.21 C31.85 8.41, 121.46 50.9, 184.98 51.38 C248.5 51.87, 349.21 10.87, 382.04 2.7" stroke="#000000" stroke-width="1" fill="none"></path></g><g transform="translate(293.39125246848494 177.5) rotate(0 190.83398196063933 25.588413094774637)"><path d="M359.15 20.89 C364.29 17.28, 368.85 11.32, 380.14 3.4 M357.75 21.75 C363.7 16.79, 368.77 12.19, 381.92 3.55" stroke="#000000" stroke-width="1" fill="none"></path></g><g transform="translate(293.39125246848494 177.5) rotate(0 190.83398196063933 25.588413094774637)"><path d="M352.98 1.32 C359.65 2.82, 365.81 1.93, 380.14 3.4 M351.57 2.18 C358.79 1.74, 365.29 1.63, 381.92 3.55" stroke="#000000" stroke-width="1" fill="none"></path></g></g><mask id="mask-hLtjyeUE34GrkujAq-u5_"><rect x="0" y="0" fill="#fff" width="775.3912524684849" height="327.5"></rect><rect x="407.3472918971959" y="210" fill="#000" width="144.08792114257812" height="35" opacity="1"></rect></mask><g transform="translate(407.3472918971959 210) rotate(0 76.8779425319284 -6.911586905225363)"><text x="72.04396057128906" y="0" font-family="Virgil, Segoe UI Emoji" font-size="28px" fill="#000000" text-anchor="middle" style="white-space: pre;" direction="ltr" dominant-baseline="text-before-edge">Right Child</text></g><g mask="url(#mask-LbnXkwANO825rgbThardA)" stroke-linecap="round"><g transform="translate(268.39125246848494 89.5) rotate(0 -87.02282671023158 -26.391667164948615)"><path d="M-1.04 0.14 C-15.58 -8.83, -57.18 -52.39, -86.05 -52.92 C-114.92 -53.46, -159.5 -11.45, -174.27 -3.08 M0.61 -0.83 C-14.1 -9.76, -57.29 -51.62, -86.5 -51.87 C-115.71 -52.12, -160.02 -10.65, -174.65 -2.33" stroke="#000000" stroke-width="1" fill="none"></path></g><g transform="translate(268.39125246848494 89.5) rotate(0 -87.02282671023158 -26.391667164948615)"><path d="M-157.56 -25.56 C-165.79 -16.29, -172.71 -7.21, -175.82 -1.82 M-158.05 -26.95 C-163.89 -18.91, -169.11 -10.64, -174.84 -1.63" stroke="#000000" stroke-width="1" fill="none"></path></g><g transform="translate(268.39125246848494 89.5) rotate(0 -87.02282671023158 -26.391667164948615)"><path d="M-145.55 -8.92 C-158.65 -6.32, -170.3 -3.8, -175.82 -1.82 M-146.04 -10.31 C-155.89 -7.57, -164.98 -4.65, -174.84 -1.63" stroke="#000000" stroke-width="1" fill="none"></path></g></g><mask id="mask-LbnXkwANO825rgbThardA"><rect x="0" y="0" fill="#fff" width="543.3912524684849" height="241.5"></rect><rect x="134.6732730373326" y="20" fill="#000" width="93.43595886230469" height="35" opacity="1"></rect></mask><g transform="translate(134.6732730373326 20) rotate(0 46.69515272092076 43.108332835051385)"><text x="46.717979431152344" y="0" font-family="Virgil, Segoe UI Emoji" font-size="28px" fill="#000000" text-anchor="middle" style="white-space: pre;" direction="ltr" dominant-baseline="text-before-edge">Parent</text></g></svg>