<svg version="1.1" xmlns="http://www.w3.org/2000/svg" viewBox="0 0 777.4757690429688 200.10193036009173" width="777.4757690429688" height="200.10193036009173">
  <!-- svg-source:excalidraw -->
  
  <defs>
    <style class="style-fonts">
      @font-face {
        font-family: "Virgil";
        src: url("https://excalidraw.com/Virgil.woff2");
      }
      @font-face {
        font-family: "Cascadia";
        src: url("https://excalidraw.com/Cascadia.woff2");
      }
    </style>
  </defs>
  <rect x="0" y="0" width="777.4757690429688" height="200.10193036009173" fill="#ffffff"></rect><g stroke-linecap="round"><g transform="translate(15.000000000000114 106) rotate(0 -0.36898673416845895 41.29286917103451)"><path d="M0.07 0.39 C0.12 14.27, 0.62 69.46, 0.65 83.03 M-1.35 -0.44 C-1.52 13.14, -1.17 67.53, -0.48 81.45" stroke="#000000" stroke-width="4" fill="none"></path></g></g><mask></mask><g stroke-linecap="round"><g transform="translate(17.000000000000114 190) rotate(0 14.648798189181832 -0.7027227738099668)"><path d="M0.18 -0.3 C5.08 -0.33, 25.15 -1.25, 30.48 -1.3 M-1.18 -1.51 C3.41 -1.25, 23.72 0.29, 29.26 0.08" stroke="#000000" stroke-width="4" fill="none"></path></g></g><mask></mask><g stroke-linecap="round"><g transform="translate(16.35120181081834 107.70272277380991) rotate(0 14.648798189181832 -0.7027227738099668)"><path d="M0.18 -0.3 C5.08 -0.33, 25.15 -1.25, 30.48 -1.3 M-1.18 -1.51 C3.41 -1.25, 23.72 0.29, 29.26 0.08" stroke="#000000" stroke-width="4" fill="none"></path></g></g><mask></mask><g stroke-linecap="round"><g transform="translate(765.4560838365721 106.17147372524914) rotate(0 -0.3689867341684021 41.29286917103451)"><path d="M0.07 0.39 C0.12 14.27, 0.62 69.46, 0.65 83.03 M-1.35 -0.44 C-1.52 13.14, -1.17 67.53, -0.48 81.45" stroke="#000000" stroke-width="4" fill="none"></path></g></g><mask></mask><g stroke-linecap="round"><g transform="translate(735.4560838365721 189.17147372524914) rotate(0 14.648798189181889 -0.7027227738099668)"><path d="M0.18 -0.3 C5.08 -0.33, 25.15 -1.25, 30.48 -1.3 M-1.18 -1.51 C3.41 -1.25, 23.72 0.29, 29.26 0.08" stroke="#000000" stroke-width="4" fill="none"></path></g></g><mask></mask><g stroke-linecap="round"><g transform="translate(733.8072856473902 106.87419649905905) rotate(0 14.648798189181889 -0.7027227738099668)"><path d="M0.18 -0.3 C5.08 -0.33, 25.15 -1.25, 30.48 -1.3 M-1.18 -1.51 C3.41 -1.25, 23.72 0.29, 29.26 0.08" stroke="#000000" stroke-width="4" fill="none"></path></g></g><mask></mask><g stroke-linecap="round" transform="translate(61 108) rotate(0 38 39)"><path d="M36.04 0.01 C42.95 -0.6, 52.72 2.81, 59.14 7 C65.56 11.2, 71.9 18.07, 74.57 25.2 C77.25 32.33, 77.37 42.46, 75.19 49.79 C73.02 57.11, 67.47 64.57, 61.52 69.14 C55.57 73.71, 46.88 77.02, 39.49 77.2 C32.1 77.37, 23.56 74.27, 17.18 70.18 C10.81 66.09, 3.74 59.63, 1.25 52.65 C-1.23 45.67, 0.09 35.74, 2.27 28.32 C4.45 20.89, 7.69 12.72, 14.33 8.11 C20.98 3.51, 36.83 1.64, 42.15 0.68 C47.47 -0.29, 46.29 1.88, 46.25 2.32 M55.58 4.68 C62.08 7.32, 68.39 14.1, 71.47 20.83 C74.56 27.56, 75 37.16, 74.1 45.04 C73.2 52.92, 71.19 62.92, 66.05 68.12 C60.91 73.32, 50.65 75.42, 43.26 76.24 C35.87 77.05, 28.23 76.29, 21.71 73.01 C15.18 69.74, 7.42 63.41, 4.11 56.59 C0.79 49.77, 0.64 39.6, 1.81 32.09 C2.98 24.58, 6.08 16.98, 11.14 11.55 C16.2 6.11, 24.86 0.69, 32.17 -0.55 C39.47 -1.79, 50.98 3.09, 54.98 4.12 C58.98 5.15, 56.58 5.23, 56.18 5.63" stroke="#000000" stroke-width="1" fill="none"></path></g><g transform="translate(94.25194396286042 124.42283553372465) rotate(0 4.877998352050781 22.5)"><text x="4.877998352050781" y="0" font-family="Virgil, Segoe UI Emoji" font-size="36px" fill="#000000" text-anchor="middle" style="white-space: pre;" direction="ltr" dominant-baseline="text-before-edge">1</text></g><g stroke-linecap="round" transform="translate(159 108) rotate(0 38 39)"><path d="M36.04 0.01 C42.95 -0.6, 52.72 2.81, 59.14 7 C65.56 11.2, 71.9 18.07, 74.57 25.2 C77.25 32.33, 77.37 42.46, 75.19 49.79 C73.02 57.11, 67.47 64.57, 61.52 69.14 C55.57 73.71, 46.88 77.02, 39.49 77.2 C32.1 77.37, 23.56 74.27, 17.18 70.18 C10.81 66.09, 3.74 59.63, 1.25 52.65 C-1.23 45.67, 0.09 35.74, 2.27 28.32 C4.45 20.89, 7.69 12.72, 14.33 8.11 C20.98 3.51, 36.83 1.64, 42.15 0.68 C47.47 -0.29, 46.29 1.88, 46.25 2.32 M55.58 4.68 C62.08 7.32, 68.39 14.1, 71.47 20.83 C74.56 27.56, 75 37.16, 74.1 45.04 C73.2 52.92, 71.19 62.92, 66.05 68.12 C60.91 73.32, 50.65 75.42, 43.26 76.24 C35.87 77.05, 28.23 76.29, 21.71 73.01 C15.18 69.74, 7.42 63.41, 4.11 56.59 C0.79 49.77, 0.64 39.6, 1.81 32.09 C2.98 24.58, 6.08 16.98, 11.14 11.55 C16.2 6.11, 24.86 0.69, 32.17 -0.55 C39.47 -1.79, 50.98 3.09, 54.98 4.12 C58.98 5.15, 56.58 5.23, 56.18 5.63" stroke="#000000" stroke-width="1" fill="none"></path></g><g transform="translate(184.3139480522159 124.42283553372465) rotate(0 12.815994262695312 22.5)"><text x="12.815994262695312" y="0" font-family="Virgil, Segoe UI Emoji" font-size="36px" fill="#000000" text-anchor="middle" style="white-space: pre;" direction="ltr" dominant-baseline="text-before-edge">2</text></g><g stroke-linecap="round" transform="translate(256 108) rotate(0 38 39)"><path d="M36.04 0.01 C42.95 -0.6, 52.72 2.81, 59.14 7 C65.56 11.2, 71.9 18.07, 74.57 25.2 C77.25 32.33, 77.37 42.46, 75.19 49.79 C73.02 57.11, 67.47 64.57, 61.52 69.14 C55.57 73.71, 46.88 77.02, 39.49 77.2 C32.1 77.37, 23.56 74.27, 17.18 70.18 C10.81 66.09, 3.74 59.63, 1.25 52.65 C-1.23 45.67, 0.09 35.74, 2.27 28.32 C4.45 20.89, 7.69 12.72, 14.33 8.11 C20.98 3.51, 36.83 1.64, 42.15 0.68 C47.47 -0.29, 46.29 1.88, 46.25 2.32 M55.58 4.68 C62.08 7.32, 68.39 14.1, 71.47 20.83 C74.56 27.56, 75 37.16, 74.1 45.04 C73.2 52.92, 71.19 62.92, 66.05 68.12 C60.91 73.32, 50.65 75.42, 43.26 76.24 C35.87 77.05, 28.23 76.29, 21.71 73.01 C15.18 69.74, 7.42 63.41, 4.11 56.59 C0.79 49.77, 0.64 39.6, 1.81 32.09 C2.98 24.58, 6.08 16.98, 11.14 11.55 C16.2 6.11, 24.86 0.69, 32.17 -0.55 C39.47 -1.79, 50.98 3.09, 54.98 4.12 C58.98 5.15, 56.58 5.23, 56.18 5.63" stroke="#000000" stroke-width="1" fill="none"></path></g><g transform="translate(281.87194670944245 124.42283553372465) rotate(0 12.25799560546875 22.5)"><text x="12.25799560546875" y="0" font-family="Virgil, Segoe UI Emoji" font-size="36px" fill="#000000" text-anchor="middle" style="white-space: pre;" direction="ltr" dominant-baseline="text-before-edge">3</text></g><g stroke-linecap="round" transform="translate(355 107) rotate(0 38 39)"><path d="M36.04 0.01 C42.95 -0.6, 52.72 2.81, 59.14 7 C65.56 11.2, 71.9 18.07, 74.57 25.2 C77.25 32.33, 77.37 42.46, 75.19 49.79 C73.02 57.11, 67.47 64.57, 61.52 69.14 C55.57 73.71, 46.88 77.02, 39.49 77.2 C32.1 77.37, 23.56 74.27, 17.18 70.18 C10.81 66.09, 3.74 59.63, 1.25 52.65 C-1.23 45.67, 0.09 35.74, 2.27 28.32 C4.45 20.89, 7.69 12.72, 14.33 8.11 C20.98 3.51, 36.83 1.64, 42.15 0.68 C47.47 -0.29, 46.29 1.88, 46.25 2.32 M55.58 4.68 C62.08 7.32, 68.39 14.1, 71.47 20.83 C74.56 27.56, 75 37.16, 74.1 45.04 C73.2 52.92, 71.19 62.92, 66.05 68.12 C60.91 73.32, 50.65 75.42, 43.26 76.24 C35.87 77.05, 28.23 76.29, 21.71 73.01 C15.18 69.74, 7.42 63.41, 4.11 56.59 C0.79 49.77, 0.64 39.6, 1.81 32.09 C2.98 24.58, 6.08 16.98, 11.14 11.55 C16.2 6.11, 24.86 0.69, 32.17 -0.55 C39.47 -1.79, 50.98 3.09, 54.98 4.12 C58.98 5.15, 56.58 5.23, 56.18 5.63" stroke="#000000" stroke-width="1" fill="none"></path></g><g transform="translate(381.6099456718448 123.42283553372465) rotate(0 11.519996643066406 22.5)"><text x="11.519996643066406" y="0" font-family="Virgil, Segoe UI Emoji" font-size="36px" fill="#000000" text-anchor="middle" style="white-space: pre;" direction="ltr" dominant-baseline="text-before-edge">4</text></g><g stroke-linecap="round" transform="translate(451 107) rotate(0 38 39)"><path d="M36.04 0.01 C42.95 -0.6, 52.72 2.81, 59.14 7 C65.56 11.2, 71.9 18.07, 74.57 25.2 C77.25 32.33, 77.37 42.46, 75.19 49.79 C73.02 57.11, 67.47 64.57, 61.52 69.14 C55.57 73.71, 46.88 77.02, 39.49 77.2 C32.1 77.37, 23.56 74.27, 17.18 70.18 C10.81 66.09, 3.74 59.63, 1.25 52.65 C-1.23 45.67, 0.09 35.74, 2.27 28.32 C4.45 20.89, 7.69 12.72, 14.33 8.11 C20.98 3.51, 36.83 1.64, 42.15 0.68 C47.47 -0.29, 46.29 1.88, 46.25 2.32 M55.58 4.68 C62.08 7.32, 68.39 14.1, 71.47 20.83 C74.56 27.56, 75 37.16, 74.1 45.04 C73.2 52.92, 71.19 62.92, 66.05 68.12 C60.91 73.32, 50.65 75.42, 43.26 76.24 C35.87 77.05, 28.23 76.29, 21.71 73.01 C15.18 69.74, 7.42 63.41, 4.11 56.59 C0.79 49.77, 0.64 39.6, 1.81 32.09 C2.98 24.58, 6.08 16.98, 11.14 11.55 C16.2 6.11, 24.86 0.69, 32.17 -0.55 C39.47 -1.79, 50.98 3.09, 54.98 4.12 C58.98 5.15, 56.58 5.23, 56.18 5.63" stroke="#000000" stroke-width="1" fill="none"></path></g><g transform="translate(478.00594939498933 123.42283553372465) rotate(0 11.123992919921875 22.5)"><text x="11.123992919921875" y="0" font-family="Virgil, Segoe UI Emoji" font-size="36px" fill="#000000" text-anchor="middle" style="white-space: pre;" direction="ltr" dominant-baseline="text-before-edge">5</text></g><g stroke-linecap="round" transform="translate(548 108) rotate(0 38 39)"><path d="M36.04 0.01 C42.95 -0.6, 52.72 2.81, 59.14 7 C65.56 11.2, 71.9 18.07, 74.57 25.2 C77.25 32.33, 77.37 42.46, 75.19 49.79 C73.02 57.11, 67.47 64.57, 61.52 69.14 C55.57 73.71, 46.88 77.02, 39.49 77.2 C32.1 77.37, 23.56 74.27, 17.18 70.18 C10.81 66.09, 3.74 59.63, 1.25 52.65 C-1.23 45.67, 0.09 35.74, 2.27 28.32 C4.45 20.89, 7.69 12.72, 14.33 8.11 C20.98 3.51, 36.83 1.64, 42.15 0.68 C47.47 -0.29, 46.29 1.88, 46.25 2.32 M55.58 4.68 C62.08 7.32, 68.39 14.1, 71.47 20.83 C74.56 27.56, 75 37.16, 74.1 45.04 C73.2 52.92, 71.19 62.92, 66.05 68.12 C60.91 73.32, 50.65 75.42, 43.26 76.24 C35.87 77.05, 28.23 76.29, 21.71 73.01 C15.18 69.74, 7.42 63.41, 4.11 56.59 C0.79 49.77, 0.64 39.6, 1.81 32.09 C2.98 24.58, 6.08 16.98, 11.14 11.55 C16.2 6.11, 24.86 0.69, 32.17 -0.55 C39.47 -1.79, 50.98 3.09, 54.98 4.12 C58.98 5.15, 56.58 5.23, 56.18 5.63" stroke="#000000" stroke-width="1" fill="none"></path></g><g transform="translate(574.6099456718448 124.42283553372465) rotate(0 11.519996643066406 22.5)"><text x="11.519996643066406" y="0" font-family="Virgil, Segoe UI Emoji" font-size="36px" fill="#000000" text-anchor="middle" style="white-space: pre;" direction="ltr" dominant-baseline="text-before-edge">6</text></g><g stroke-linecap="round" transform="translate(640 108) rotate(0 38 39)"><path d="M36.04 0.01 C42.95 -0.6, 52.72 2.81, 59.14 7 C65.56 11.2, 71.9 18.07, 74.57 25.2 C77.25 32.33, 77.37 42.46, 75.19 49.79 C73.02 57.11, 67.47 64.57, 61.52 69.14 C55.57 73.71, 46.88 77.02, 39.49 77.2 C32.1 77.37, 23.56 74.27, 17.18 70.18 C10.81 66.09, 3.74 59.63, 1.25 52.65 C-1.23 45.67, 0.09 35.74, 2.27 28.32 C4.45 20.89, 7.69 12.72, 14.33 8.11 C20.98 3.51, 36.83 1.64, 42.15 0.68 C47.47 -0.29, 46.29 1.88, 46.25 2.32 M55.58 4.68 C62.08 7.32, 68.39 14.1, 71.47 20.83 C74.56 27.56, 75 37.16, 74.1 45.04 C73.2 52.92, 71.19 62.92, 66.05 68.12 C60.91 73.32, 50.65 75.42, 43.26 76.24 C35.87 77.05, 28.23 76.29, 21.71 73.01 C15.18 69.74, 7.42 63.41, 4.11 56.59 C0.79 49.77, 0.64 39.6, 1.81 32.09 C2.98 24.58, 6.08 16.98, 11.14 11.55 C16.2 6.11, 24.86 0.69, 32.17 -0.55 C39.47 -1.79, 50.98 3.09, 54.98 4.12 C58.98 5.15, 56.58 5.23, 56.18 5.63" stroke="#000000" stroke-width="1" fill="none"></path></g><g transform="translate(668.445944207001 124.42283553372465) rotate(0 9.683998107910156 22.5)"><text x="9.683998107910156" y="0" font-family="Virgil, Segoe UI Emoji" font-size="36px" fill="#000000" text-anchor="middle" style="white-space: pre;" direction="ltr" dominant-baseline="text-before-edge">7</text></g><g stroke-linecap="round"><g transform="translate(146 170) rotate(0 3.498202868243709 5.019932344648964)"><path d="M0.17 0.89 C1.45 2.43, 7.25 6.97, 8.2 8.47 M-1.2 0.31 C-0.01 2.08, 6.31 8.44, 7.88 9.73" stroke="#000000" stroke-width="4" fill="none"></path></g></g><mask></mask><g stroke-linecap="round"><g transform="translate(245.50179713175635 172.98006765535115) rotate(0 3.498202868243652 5.019932344648964)"><path d="M0.17 0.89 C1.45 2.43, 7.25 6.97, 8.2 8.47 M-1.2 0.31 C-0.01 2.08, 6.31 8.44, 7.88 9.73" stroke="#000000" stroke-width="4" fill="none"></path></g></g><mask></mask><g stroke-linecap="round"><g transform="translate(345.5017971317561 176.98006765535115) rotate(0 3.498202868243652 5.019932344648964)"><path d="M0.17 0.89 C1.45 2.43, 7.25 6.97, 8.2 8.47 M-1.2 0.31 C-0.01 2.08, 6.31 8.44, 7.88 9.73" stroke="#000000" stroke-width="4" fill="none"></path></g></g><mask></mask><g stroke-linecap="round"><g transform="translate(439.5017971317561 173.98006765535115) rotate(0 3.498202868243652 5.019932344648964)"><path d="M0.17 0.89 C1.45 2.43, 7.25 6.97, 8.2 8.47 M-1.2 0.31 C-0.01 2.08, 6.31 8.44, 7.88 9.73" stroke="#000000" stroke-width="4" fill="none"></path></g></g><mask></mask><g stroke-linecap="round"><g transform="translate(537.5017971317561 178.98006765535115) rotate(0 3.498202868243652 5.019932344648964)"><path d="M0.17 0.89 C1.45 2.43, 7.25 6.97, 8.2 8.47 M-1.2 0.31 C-0.01 2.08, 6.31 8.44, 7.88 9.73" stroke="#000000" stroke-width="4" fill="none"></path></g></g><mask></mask><g stroke-linecap="round"><g transform="translate(634.5017971317561 177.98006765535115) rotate(0 3.498202868243652 5.019932344648964)"><path d="M0.17 0.89 C1.45 2.43, 7.25 6.97, 8.2 8.47 M-1.2 0.31 C-0.01 2.08, 6.31 8.44, 7.88 9.73" stroke="#000000" stroke-width="4" fill="none"></path></g></g><mask></mask><g transform="translate(10 10) rotate(0 378.7378845214844 22.5)"><text x="0" y="0" font-family="Virgil, Segoe UI Emoji" font-size="36px" fill="#000000" text-anchor="start" style="white-space: pre;" direction="ltr" dominant-baseline="text-before-edge">The same binary tree stored as an array:</text></g></svg>