<svg version="1.1" xmlns="http://www.w3.org/2000/svg" viewBox="0 0 1084.4074632279069 505.0753214941825" width="1084.4074632279069" height="505.0753214941825">
  <!-- svg-source:excalidraw -->
  
  <defs>
    <style class="style-fonts">
      @font-face {
        font-family: "Virgil";
        src: url("https://excalidraw.com/Virgil.woff2");
      }
      @font-face {
        font-family: "Cascadia";
        src: url("https://excalidraw.com/Cascadia.woff2");
      }
    </style>
  </defs>
  <rect x="0" y="0" width="1084.4074632279069" height="505.0753214941825" fill="#ffffff"></rect><g stroke-linecap="round" transform="translate(341.6515615431721 10) rotate(0 44.21769748928352 41)"><path d="M88.44 41 C88.44 42.94, 88.28 44.91, 87.99 46.83 C87.69 48.76, 87.24 50.68, 86.64 52.55 C86.05 54.42, 85.31 56.26, 84.44 58.03 C83.57 59.8, 82.55 61.53, 81.42 63.17 C80.28 64.8, 79.01 66.38, 77.64 67.85 C76.26 69.32, 74.76 70.71, 73.17 71.99 C71.59 73.26, 69.89 74.44, 68.12 75.49 C66.36 76.54, 64.49 77.49, 62.59 78.29 C60.68 79.1, 58.69 79.79, 56.68 80.34 C54.66 80.89, 52.59 81.31, 50.51 81.58 C48.43 81.86, 46.32 82, 44.22 82 C42.12 82, 40 81.86, 37.92 81.58 C35.85 81.31, 33.77 80.89, 31.76 80.34 C29.75 79.79, 27.76 79.1, 25.85 78.29 C23.94 77.49, 22.08 76.54, 20.31 75.49 C18.55 74.44, 16.85 73.26, 15.26 71.99 C13.68 70.71, 12.17 69.32, 10.8 67.85 C9.43 66.38, 8.15 64.8, 7.02 63.17 C5.89 61.53, 4.87 59.8, 4 58.03 C3.12 56.26, 2.38 54.42, 1.79 52.55 C1.2 50.68, 0.75 48.76, 0.45 46.83 C0.15 44.91, 0 42.94, 0 41 C0 39.06, 0.15 37.09, 0.45 35.17 C0.75 33.24, 1.2 31.32, 1.79 29.45 C2.38 27.58, 3.12 25.74, 4 23.97 C4.87 22.2, 5.89 20.47, 7.02 18.83 C8.15 17.2, 9.43 15.62, 10.8 14.15 C12.17 12.68, 13.68 11.29, 15.26 10.01 C16.85 8.74, 18.55 7.56, 20.31 6.51 C22.08 5.46, 23.94 4.51, 25.85 3.71 C27.76 2.9, 29.75 2.21, 31.76 1.66 C33.77 1.11, 35.85 0.69, 37.92 0.42 C40 0.14, 42.12 0, 44.22 0 C46.32 0, 48.43 0.14, 50.51 0.42 C52.59 0.69, 54.66 1.11, 56.68 1.66 C58.69 2.21, 60.68 2.9, 62.59 3.71 C64.49 4.51, 66.36 5.46, 68.12 6.51 C69.89 7.56, 71.59 8.74, 73.17 10.01 C74.76 11.29, 76.26 12.68, 77.64 14.15 C79.01 15.62, 80.28 17.2, 81.42 18.83 C82.55 20.47, 83.57 22.2, 84.44 23.97 C85.31 25.74, 86.05 27.58, 86.64 29.45 C87.24 31.32, 87.69 33.24, 87.99 35.17 C88.28 37.09, 88.36 40.03, 88.44 41 C88.51 41.97, 88.51 40.03, 88.44 41" stroke="#000000" stroke-width="1" fill="none"></path></g><g transform="translate(380.9319481042693 27.158621971351522) rotate(0 5.170677185058594 23.849999999999994)"><text x="5.170677185058594" y="0" font-family="Virgil, Segoe UI Emoji" font-size="38.160000000000004px" fill="#000000" text-anchor="middle" style="white-space: pre;" direction="ltr" dominant-baseline="text-before-edge">1</text></g><g stroke-linecap="round" transform="translate(143.17973055725656 218.39620330679736) rotate(0 44.21769748928352 41)"><path d="M88.44 41 C88.44 42.94, 88.28 44.91, 87.99 46.83 C87.69 48.76, 87.24 50.68, 86.64 52.55 C86.05 54.42, 85.31 56.26, 84.44 58.03 C83.57 59.8, 82.55 61.53, 81.42 63.17 C80.28 64.8, 79.01 66.38, 77.64 67.85 C76.26 69.32, 74.76 70.71, 73.17 71.99 C71.59 73.26, 69.89 74.44, 68.12 75.49 C66.36 76.54, 64.49 77.49, 62.59 78.29 C60.68 79.1, 58.69 79.79, 56.68 80.34 C54.66 80.89, 52.59 81.31, 50.51 81.58 C48.43 81.86, 46.32 82, 44.22 82 C42.12 82, 40 81.86, 37.92 81.58 C35.85 81.31, 33.77 80.89, 31.76 80.34 C29.75 79.79, 27.76 79.1, 25.85 78.29 C23.94 77.49, 22.08 76.54, 20.31 75.49 C18.55 74.44, 16.85 73.26, 15.26 71.99 C13.68 70.71, 12.17 69.32, 10.8 67.85 C9.43 66.38, 8.15 64.8, 7.02 63.17 C5.89 61.53, 4.87 59.8, 4 58.03 C3.12 56.26, 2.38 54.42, 1.79 52.55 C1.2 50.68, 0.75 48.76, 0.45 46.83 C0.15 44.91, 0 42.94, 0 41 C0 39.06, 0.15 37.09, 0.45 35.17 C0.75 33.24, 1.2 31.32, 1.79 29.45 C2.38 27.58, 3.12 25.74, 4 23.97 C4.87 22.2, 5.89 20.47, 7.02 18.83 C8.15 17.2, 9.43 15.62, 10.8 14.15 C12.17 12.68, 13.68 11.29, 15.26 10.01 C16.85 8.74, 18.55 7.56, 20.31 6.51 C22.08 5.46, 23.94 4.51, 25.85 3.71 C27.76 2.9, 29.75 2.21, 31.76 1.66 C33.77 1.11, 35.85 0.69, 37.92 0.42 C40 0.14, 42.12 0, 44.22 0 C46.32 0, 48.43 0.14, 50.51 0.42 C52.59 0.69, 54.66 1.11, 56.68 1.66 C58.69 2.21, 60.68 2.9, 62.59 3.71 C64.49 4.51, 66.36 5.46, 68.12 6.51 C69.89 7.56, 71.59 8.74, 73.17 10.01 C74.76 11.29, 76.26 12.68, 77.64 14.15 C79.01 15.62, 80.28 17.2, 81.42 18.83 C82.55 20.47, 83.57 22.2, 84.44 23.97 C85.31 25.74, 86.05 27.58, 86.64 29.45 C87.24 31.32, 87.69 33.24, 87.99 35.17 C88.28 37.09, 88.36 40.03, 88.44 41 C88.51 41.97, 88.51 40.03, 88.44 41" stroke="#000000" stroke-width="1" fill="none"></path></g><g transform="translate(174.0458409953069 235.55482527814888) rotate(0 13.584953308105469 23.850000000000023)"><text x="13.584953308105469" y="0" font-family="Virgil, Segoe UI Emoji" font-size="38.160000000000004px" fill="#000000" text-anchor="middle" style="white-space: pre;" direction="ltr" dominant-baseline="text-before-edge">2</text></g><g stroke-linecap="round" transform="translate(556.810471524801 227.80036742192294) rotate(0 44.21769748928352 41)"><path d="M88.44 41 C88.44 42.94, 88.28 44.91, 87.99 46.83 C87.69 48.76, 87.24 50.68, 86.64 52.55 C86.05 54.42, 85.31 56.26, 84.44 58.03 C83.57 59.8, 82.55 61.53, 81.42 63.17 C80.28 64.8, 79.01 66.38, 77.64 67.85 C76.26 69.32, 74.76 70.71, 73.17 71.99 C71.59 73.26, 69.89 74.44, 68.12 75.49 C66.36 76.54, 64.49 77.49, 62.59 78.29 C60.68 79.1, 58.69 79.79, 56.68 80.34 C54.66 80.89, 52.59 81.31, 50.51 81.58 C48.43 81.86, 46.32 82, 44.22 82 C42.12 82, 40 81.86, 37.92 81.58 C35.85 81.31, 33.77 80.89, 31.76 80.34 C29.75 79.79, 27.76 79.1, 25.85 78.29 C23.94 77.49, 22.08 76.54, 20.31 75.49 C18.55 74.44, 16.85 73.26, 15.26 71.99 C13.68 70.71, 12.17 69.32, 10.8 67.85 C9.43 66.38, 8.15 64.8, 7.02 63.17 C5.89 61.53, 4.87 59.8, 4 58.03 C3.12 56.26, 2.38 54.42, 1.79 52.55 C1.2 50.68, 0.75 48.76, 0.45 46.83 C0.15 44.91, 0 42.94, 0 41 C0 39.06, 0.15 37.09, 0.45 35.17 C0.75 33.24, 1.2 31.32, 1.79 29.45 C2.38 27.58, 3.12 25.74, 4 23.97 C4.87 22.2, 5.89 20.47, 7.02 18.83 C8.15 17.2, 9.43 15.62, 10.8 14.15 C12.17 12.68, 13.68 11.29, 15.26 10.01 C16.85 8.74, 18.55 7.56, 20.31 6.51 C22.08 5.46, 23.94 4.51, 25.85 3.71 C27.76 2.9, 29.75 2.21, 31.76 1.66 C33.77 1.11, 35.85 0.69, 37.92 0.42 C40 0.14, 42.12 0, 44.22 0 C46.32 0, 48.43 0.14, 50.51 0.42 C52.59 0.69, 54.66 1.11, 56.68 1.66 C58.69 2.21, 60.68 2.9, 62.59 3.71 C64.49 4.51, 66.36 5.46, 68.12 6.51 C69.89 7.56, 71.59 8.74, 73.17 10.01 C74.76 11.29, 76.26 12.68, 77.64 14.15 C79.01 15.62, 80.28 17.2, 81.42 18.83 C82.55 20.47, 83.57 22.2, 84.44 23.97 C85.31 25.74, 86.05 27.58, 86.64 29.45 C87.24 31.32, 87.69 33.24, 87.99 35.17 C88.28 37.09, 88.36 40.03, 88.44 41 C88.51 41.97, 88.51 40.03, 88.44 41" stroke="#000000" stroke-width="1" fill="none"></path></g><g transform="translate(588.268058403281 244.95898939327446) rotate(0 12.993476867675781 23.850000000000023)"><text x="12.993476867675781" y="0" font-family="Virgil, Segoe UI Emoji" font-size="38.160000000000004px" fill="#000000" text-anchor="middle" style="white-space: pre;" direction="ltr" dominant-baseline="text-before-edge">3</text></g><g stroke-linecap="round" transform="translate(19.5214329454991 413.0753214941825) rotate(0 44.21769748928352 41)"><path d="M88.44 41 C88.44 42.94, 88.28 44.91, 87.99 46.83 C87.69 48.76, 87.24 50.68, 86.64 52.55 C86.05 54.42, 85.31 56.26, 84.44 58.03 C83.57 59.8, 82.55 61.53, 81.42 63.17 C80.28 64.8, 79.01 66.38, 77.64 67.85 C76.26 69.32, 74.76 70.71, 73.17 71.99 C71.59 73.26, 69.89 74.44, 68.12 75.49 C66.36 76.54, 64.49 77.49, 62.59 78.29 C60.68 79.1, 58.69 79.79, 56.68 80.34 C54.66 80.89, 52.59 81.31, 50.51 81.58 C48.43 81.86, 46.32 82, 44.22 82 C42.12 82, 40 81.86, 37.92 81.58 C35.85 81.31, 33.77 80.89, 31.76 80.34 C29.75 79.79, 27.76 79.1, 25.85 78.29 C23.94 77.49, 22.08 76.54, 20.31 75.49 C18.55 74.44, 16.85 73.26, 15.26 71.99 C13.68 70.71, 12.17 69.32, 10.8 67.85 C9.43 66.38, 8.15 64.8, 7.02 63.17 C5.89 61.53, 4.87 59.8, 4 58.03 C3.12 56.26, 2.38 54.42, 1.79 52.55 C1.2 50.68, 0.75 48.76, 0.45 46.83 C0.15 44.91, 0 42.94, 0 41 C0 39.06, 0.15 37.09, 0.45 35.17 C0.75 33.24, 1.2 31.32, 1.79 29.45 C2.38 27.58, 3.12 25.74, 4 23.97 C4.87 22.2, 5.89 20.47, 7.02 18.83 C8.15 17.2, 9.43 15.62, 10.8 14.15 C12.17 12.68, 13.68 11.29, 15.26 10.01 C16.85 8.74, 18.55 7.56, 20.31 6.51 C22.08 5.46, 23.94 4.51, 25.85 3.71 C27.76 2.9, 29.75 2.21, 31.76 1.66 C33.77 1.11, 35.85 0.69, 37.92 0.42 C40 0.14, 42.12 0, 44.22 0 C46.32 0, 48.43 0.14, 50.51 0.42 C52.59 0.69, 54.66 1.11, 56.68 1.66 C58.69 2.21, 60.68 2.9, 62.59 3.71 C64.49 4.51, 66.36 5.46, 68.12 6.51 C69.89 7.56, 71.59 8.74, 73.17 10.01 C74.76 11.29, 76.26 12.68, 77.64 14.15 C79.01 15.62, 80.28 17.2, 81.42 18.83 C82.55 20.47, 83.57 22.2, 84.44 23.97 C85.31 25.74, 86.05 27.58, 86.64 29.45 C87.24 31.32, 87.69 33.24, 87.99 35.17 C88.28 37.09, 88.36 40.03, 88.44 41 C88.51 41.97, 88.51 40.03, 88.44 41" stroke="#000000" stroke-width="1" fill="none"></path></g><g transform="translate(51.761299792240834 430.233943465534) rotate(0 12.211196899414062 23.850000000000023)"><text x="12.211196899414062" y="0" font-family="Virgil, Segoe UI Emoji" font-size="38.160000000000004px" fill="#000000" text-anchor="middle" style="white-space: pre;" direction="ltr" dominant-baseline="text-before-edge">4</text></g><g stroke-linecap="round" transform="translate(241.3322106552357 412.115737905695) rotate(0 44.21769748928352 41)"><path d="M88.44 41 C88.44 42.94, 88.28 44.91, 87.99 46.83 C87.69 48.76, 87.24 50.68, 86.64 52.55 C86.05 54.42, 85.31 56.26, 84.44 58.03 C83.57 59.8, 82.55 61.53, 81.42 63.17 C80.28 64.8, 79.01 66.38, 77.64 67.85 C76.26 69.32, 74.76 70.71, 73.17 71.99 C71.59 73.26, 69.89 74.44, 68.12 75.49 C66.36 76.54, 64.49 77.49, 62.59 78.29 C60.68 79.1, 58.69 79.79, 56.68 80.34 C54.66 80.89, 52.59 81.31, 50.51 81.58 C48.43 81.86, 46.32 82, 44.22 82 C42.12 82, 40 81.86, 37.92 81.58 C35.85 81.31, 33.77 80.89, 31.76 80.34 C29.75 79.79, 27.76 79.1, 25.85 78.29 C23.94 77.49, 22.08 76.54, 20.31 75.49 C18.55 74.44, 16.85 73.26, 15.26 71.99 C13.68 70.71, 12.17 69.32, 10.8 67.85 C9.43 66.38, 8.15 64.8, 7.02 63.17 C5.89 61.53, 4.87 59.8, 4 58.03 C3.12 56.26, 2.38 54.42, 1.79 52.55 C1.2 50.68, 0.75 48.76, 0.45 46.83 C0.15 44.91, 0 42.94, 0 41 C0 39.06, 0.15 37.09, 0.45 35.17 C0.75 33.24, 1.2 31.32, 1.79 29.45 C2.38 27.58, 3.12 25.74, 4 23.97 C4.87 22.2, 5.89 20.47, 7.02 18.83 C8.15 17.2, 9.43 15.62, 10.8 14.15 C12.17 12.68, 13.68 11.29, 15.26 10.01 C16.85 8.74, 18.55 7.56, 20.31 6.51 C22.08 5.46, 23.94 4.51, 25.85 3.71 C27.76 2.9, 29.75 2.21, 31.76 1.66 C33.77 1.11, 35.85 0.69, 37.92 0.42 C40 0.14, 42.12 0, 44.22 0 C46.32 0, 48.43 0.14, 50.51 0.42 C52.59 0.69, 54.66 1.11, 56.68 1.66 C58.69 2.21, 60.68 2.9, 62.59 3.71 C64.49 4.51, 66.36 5.46, 68.12 6.51 C69.89 7.56, 71.59 8.74, 73.17 10.01 C74.76 11.29, 76.26 12.68, 77.64 14.15 C79.01 15.62, 80.28 17.2, 81.42 18.83 C82.55 20.47, 83.57 22.2, 84.44 23.97 C85.31 25.74, 86.05 27.58, 86.64 29.45 C87.24 31.32, 87.69 33.24, 87.99 35.17 C88.28 37.09, 88.36 40.03, 88.44 41 C88.51 41.97, 88.51 40.03, 88.44 41" stroke="#000000" stroke-width="1" fill="none"></path></g><g transform="translate(273.9918391596923 429.27435987704655) rotate(0 11.791435241699219 23.850000000000023)"><text x="11.791435241699219" y="0" font-family="Virgil, Segoe UI Emoji" font-size="38.160000000000004px" fill="#000000" text-anchor="middle" style="white-space: pre;" direction="ltr" dominant-baseline="text-before-edge">5</text></g><g stroke-linecap="round" transform="translate(426.6475811390079 410.83282302510713) rotate(0 44.21769748928352 41)"><path d="M88.44 41 C88.44 42.94, 88.28 44.91, 87.99 46.83 C87.69 48.76, 87.24 50.68, 86.64 52.55 C86.05 54.42, 85.31 56.26, 84.44 58.03 C83.57 59.8, 82.55 61.53, 81.42 63.17 C80.28 64.8, 79.01 66.38, 77.64 67.85 C76.26 69.32, 74.76 70.71, 73.17 71.99 C71.59 73.26, 69.89 74.44, 68.12 75.49 C66.36 76.54, 64.49 77.49, 62.59 78.29 C60.68 79.1, 58.69 79.79, 56.68 80.34 C54.66 80.89, 52.59 81.31, 50.51 81.58 C48.43 81.86, 46.32 82, 44.22 82 C42.12 82, 40 81.86, 37.92 81.58 C35.85 81.31, 33.77 80.89, 31.76 80.34 C29.75 79.79, 27.76 79.1, 25.85 78.29 C23.94 77.49, 22.08 76.54, 20.31 75.49 C18.55 74.44, 16.85 73.26, 15.26 71.99 C13.68 70.71, 12.17 69.32, 10.8 67.85 C9.43 66.38, 8.15 64.8, 7.02 63.17 C5.89 61.53, 4.87 59.8, 4 58.03 C3.12 56.26, 2.38 54.42, 1.79 52.55 C1.2 50.68, 0.75 48.76, 0.45 46.83 C0.15 44.91, 0 42.94, 0 41 C0 39.06, 0.15 37.09, 0.45 35.17 C0.75 33.24, 1.2 31.32, 1.79 29.45 C2.38 27.58, 3.12 25.74, 4 23.97 C4.87 22.2, 5.89 20.47, 7.02 18.83 C8.15 17.2, 9.43 15.62, 10.8 14.15 C12.17 12.68, 13.68 11.29, 15.26 10.01 C16.85 8.74, 18.55 7.56, 20.31 6.51 C22.08 5.46, 23.94 4.51, 25.85 3.71 C27.76 2.9, 29.75 2.21, 31.76 1.66 C33.77 1.11, 35.85 0.69, 37.92 0.42 C40 0.14, 42.12 0, 44.22 0 C46.32 0, 48.43 0.14, 50.51 0.42 C52.59 0.69, 54.66 1.11, 56.68 1.66 C58.69 2.21, 60.68 2.9, 62.59 3.71 C64.49 4.51, 66.36 5.46, 68.12 6.51 C69.89 7.56, 71.59 8.74, 73.17 10.01 C74.76 11.29, 76.26 12.68, 77.64 14.15 C79.01 15.62, 80.28 17.2, 81.42 18.83 C82.55 20.47, 83.57 22.2, 84.44 23.97 C85.31 25.74, 86.05 27.58, 86.64 29.45 C87.24 31.32, 87.69 33.24, 87.99 35.17 C88.28 37.09, 88.36 40.03, 88.44 41 C88.51 41.97, 88.51 40.03, 88.44 41" stroke="#000000" stroke-width="1" fill="none"></path></g><g transform="translate(458.88744798574965 427.99144499645865) rotate(0 12.211196899414062 23.850000000000023)"><text x="12.211196899414062" y="0" font-family="Virgil, Segoe UI Emoji" font-size="38.160000000000004px" fill="#000000" text-anchor="middle" style="white-space: pre;" direction="ltr" dominant-baseline="text-before-edge">6</text></g><g stroke-linecap="round" transform="translate(692.0646050214332 410.54990814451935) rotate(0 44.21769748928352 41)"><path d="M88.44 41 C88.44 42.94, 88.28 44.91, 87.99 46.83 C87.69 48.76, 87.24 50.68, 86.64 52.55 C86.05 54.42, 85.31 56.26, 84.44 58.03 C83.57 59.8, 82.55 61.53, 81.42 63.17 C80.28 64.8, 79.01 66.38, 77.64 67.85 C76.26 69.32, 74.76 70.71, 73.17 71.99 C71.59 73.26, 69.89 74.44, 68.12 75.49 C66.36 76.54, 64.49 77.49, 62.59 78.29 C60.68 79.1, 58.69 79.79, 56.68 80.34 C54.66 80.89, 52.59 81.31, 50.51 81.58 C48.43 81.86, 46.32 82, 44.22 82 C42.12 82, 40 81.86, 37.92 81.58 C35.85 81.31, 33.77 80.89, 31.76 80.34 C29.75 79.79, 27.76 79.1, 25.85 78.29 C23.94 77.49, 22.08 76.54, 20.31 75.49 C18.55 74.44, 16.85 73.26, 15.26 71.99 C13.68 70.71, 12.17 69.32, 10.8 67.85 C9.43 66.38, 8.15 64.8, 7.02 63.17 C5.89 61.53, 4.87 59.8, 4 58.03 C3.12 56.26, 2.38 54.42, 1.79 52.55 C1.2 50.68, 0.75 48.76, 0.45 46.83 C0.15 44.91, 0 42.94, 0 41 C0 39.06, 0.15 37.09, 0.45 35.17 C0.75 33.24, 1.2 31.32, 1.79 29.45 C2.38 27.58, 3.12 25.74, 4 23.97 C4.87 22.2, 5.89 20.47, 7.02 18.83 C8.15 17.2, 9.43 15.62, 10.8 14.15 C12.17 12.68, 13.68 11.29, 15.26 10.01 C16.85 8.74, 18.55 7.56, 20.31 6.51 C22.08 5.46, 23.94 4.51, 25.85 3.71 C27.76 2.9, 29.75 2.21, 31.76 1.66 C33.77 1.11, 35.85 0.69, 37.92 0.42 C40 0.14, 42.12 0, 44.22 0 C46.32 0, 48.43 0.14, 50.51 0.42 C52.59 0.69, 54.66 1.11, 56.68 1.66 C58.69 2.21, 60.68 2.9, 62.59 3.71 C64.49 4.51, 66.36 5.46, 68.12 6.51 C69.89 7.56, 71.59 8.74, 73.17 10.01 C74.76 11.29, 76.26 12.68, 77.64 14.15 C79.01 15.62, 80.28 17.2, 81.42 18.83 C82.55 20.47, 83.57 22.2, 84.44 23.97 C85.31 25.74, 86.05 27.58, 86.64 29.45 C87.24 31.32, 87.69 33.24, 87.99 35.17 C88.28 37.09, 88.36 40.03, 88.44 41 C88.51 41.97, 88.51 40.03, 88.44 41" stroke="#000000" stroke-width="1" fill="none"></path></g><g transform="translate(726.250631230968 427.7085301158709) rotate(0 10.265037536621094 23.850000000000023)"><text x="10.265037536621094" y="0" font-family="Virgil, Segoe UI Emoji" font-size="38.160000000000004px" fill="#000000" text-anchor="middle" style="white-space: pre;" direction="ltr" dominant-baseline="text-before-edge">7</text></g><g stroke-linecap="round"><g transform="translate(346.5347611600878 71.71619940267414) rotate(0 -63.01482750961537 76.46279102628415)"><path d="M0 0 C-21 25.49, -105.02 127.44, -126.03 152.93 M0 0 C-21 25.49, -105.02 127.44, -126.03 152.93" stroke="#000000" stroke-width="1" fill="none"></path></g><g transform="translate(346.5347611600878 71.71619940267414) rotate(0 -63.01482750961537 76.46279102628415)"><path d="M-116.02 124.65 C-119.7 135.05, -123.38 145.45, -126.03 152.93 M-116.02 124.65 C-118.79 132.48, -121.56 140.31, -126.03 152.93" stroke="#000000" stroke-width="1" fill="none"></path></g><g transform="translate(346.5347611600878 71.71619940267414) rotate(0 -63.01482750961537 76.46279102628415)"><path d="M-100.18 137.7 C-109.69 143.3, -119.2 148.9, -126.03 152.93 M-100.18 137.7 C-107.34 141.91, -114.5 146.13, -126.03 152.93" stroke="#000000" stroke-width="1" fill="none"></path></g></g><mask></mask><g stroke-linecap="round"><g transform="translate(420.80822029888907 79.79386179251458) rotate(0 77.84910683261194 74.33318744651513)"><path d="M0 0 C25.95 24.78, 129.75 123.89, 155.7 148.67 M0 0 C25.95 24.78, 129.75 123.89, 155.7 148.67" stroke="#000000" stroke-width="1" fill="none"></path></g><g transform="translate(420.80822029888907 79.79386179251458) rotate(0 77.84910683261194 74.33318744651513)"><path d="M128.22 136.62 C139.17 141.42, 150.12 146.22, 155.7 148.67 M128.22 136.62 C138.9 141.3, 149.58 145.98, 155.7 148.67" stroke="#000000" stroke-width="1" fill="none"></path></g><g transform="translate(420.80822029888907 79.79386179251458) rotate(0 77.84910683261194 74.33318744651513)"><path d="M142.4 121.78 C147.7 132.49, 153 143.2, 155.7 148.67 M142.4 121.78 C147.56 132.23, 152.73 142.68, 155.7 148.67" stroke="#000000" stroke-width="1" fill="none"></path></g></g><mask></mask><g stroke-linecap="round"><g transform="translate(150.28470748459867 288.4702982763705) rotate(0 -37.84595254370356 61.502271777949545)"><path d="M0 0 C-12.62 20.5, -63.08 102.5, -75.69 123 M0 0 C-12.62 20.5, -63.08 102.5, -75.69 123" stroke="#000000" stroke-width="1" fill="none"></path></g><g transform="translate(150.28470748459867 288.4702982763705) rotate(0 -37.84595254370356 61.502271777949545)"><path d="M-69.66 93.62 C-71.43 102.27, -73.21 110.92, -75.69 123 M-69.66 93.62 C-70.92 99.75, -72.18 105.88, -75.69 123" stroke="#000000" stroke-width="1" fill="none"></path></g><g transform="translate(150.28470748459867 288.4702982763705) rotate(0 -37.84595254370356 61.502271777949545)"><path d="M-52.18 104.37 C-59.1 109.86, -66.02 115.34, -75.69 123 M-52.18 104.37 C-57.09 108.26, -61.99 112.15, -75.69 123" stroke="#000000" stroke-width="1" fill="none"></path></g></g><mask></mask><g stroke-linecap="round"><g transform="translate(209.42922355063388 296.0735027836605) rotate(0 30.238433660473163 56.99211539561918)"><path d="M0 0 C10.08 19, 50.4 94.99, 60.48 113.98 M0 0 C10.08 19, 50.4 94.99, 60.48 113.98" stroke="#000000" stroke-width="1" fill="none"></path></g><g transform="translate(209.42922355063388 296.0735027836605) rotate(0 30.238433660473163 56.99211539561918)"><path d="M38.2 93.89 C46.14 101.06, 54.09 108.22, 60.48 113.98 M38.2 93.89 C43.8 98.95, 49.41 104, 60.48 113.98" stroke="#000000" stroke-width="1" fill="none"></path></g><g transform="translate(209.42922355063388 296.0735027836605) rotate(0 30.238433660473163 56.99211539561918)"><path d="M56.33 84.27 C57.81 94.87, 59.29 105.46, 60.48 113.98 M56.33 84.27 C57.37 91.75, 58.42 99.22, 60.48 113.98" stroke="#000000" stroke-width="1" fill="none"></path></g></g><mask></mask><g stroke-linecap="round"><g transform="translate(574.7133749124037 302.95556326761164) rotate(0 -38.75818315303479 56.48376853271617)"><path d="M0 0 C-12.92 18.83, -64.6 94.14, -77.52 112.97 M0 0 C-12.92 18.83, -64.6 94.14, -77.52 112.97" stroke="#000000" stroke-width="1" fill="none"></path></g><g transform="translate(574.7133749124037 302.95556326761164) rotate(0 -38.75818315303479 56.48376853271617)"><path d="M-70.03 83.92 C-71.85 90.97, -73.66 98.02, -77.52 112.97 M-70.03 83.92 C-72.21 92.39, -74.39 100.86, -77.52 112.97" stroke="#000000" stroke-width="1" fill="none"></path></g><g transform="translate(574.7133749124037 302.95556326761164) rotate(0 -38.75818315303479 56.48376853271617)"><path d="M-53.11 95.53 C-59.03 99.76, -64.96 104, -77.52 112.97 M-53.11 95.53 C-60.22 100.61, -67.34 105.7, -77.52 112.97" stroke="#000000" stroke-width="1" fill="none"></path></g></g><mask></mask><g stroke-linecap="round"><g transform="translate(625.8134014692716 304.9154735768932) rotate(0 45.87055434491481 51.77695085422198)"><path d="M0 0 C15.29 17.26, 76.45 86.29, 91.74 103.55 M0 0 C15.29 17.26, 76.45 86.29, 91.74 103.55" stroke="#000000" stroke-width="1" fill="none"></path></g><g transform="translate(625.8134014692716 304.9154735768932) rotate(0 45.87055434491481 51.77695085422198)"><path d="M65.37 89.26 C74.33 94.12, 83.3 98.98, 91.74 103.55 M65.37 89.26 C71.73 92.71, 78.09 96.16, 91.74 103.55" stroke="#000000" stroke-width="1" fill="none"></path></g><g transform="translate(625.8134014692716 304.9154735768932) rotate(0 45.87055434491481 51.77695085422198)"><path d="M80.73 75.65 C84.47 85.14, 88.22 94.62, 91.74 103.55 M80.73 75.65 C83.38 82.38, 86.04 89.11, 91.74 103.55" stroke="#000000" stroke-width="1" fill="none"></path></g></g><mask></mask><g transform="translate(601.7519902020821 26.37293325168406) rotate(0 96.71460723876953 23.409369259032445)"><text x="0" y="0" font-family="Virgil, Segoe UI Emoji" font-size="37.45499081445193px" fill="#000000" text-anchor="start" style="white-space: pre;" direction="ltr" dominant-baseline="text-before-edge">Root Node</text></g><g transform="translate(862.5903245560319 431.6123698714024) rotate(0 105.9085693359375 23.409369259032474)"><text x="0" y="0" font-family="Virgil, Segoe UI Emoji" font-size="37.45499081445193px" fill="#000000" text-anchor="start" style="white-space: pre;" direction="ltr" dominant-baseline="text-before-edge">Leaf Nodes</text></g><g transform="translate(739.3845682792407 198.5045927740356) rotate(0 93.14997100830078 45)"><text x="0" y="0" font-family="Virgil, Segoe UI Emoji" font-size="36px" fill="#000000" text-anchor="start" style="white-space: pre;" direction="ltr" dominant-baseline="text-before-edge">Hieght = 3</text><text x="0" y="45" font-family="Virgil, Segoe UI Emoji" font-size="36px" fill="#000000" text-anchor="start" style="white-space: pre;" direction="ltr" dominant-baseline="text-before-edge">Size = 7</text></g><g stroke-linecap="round"><g transform="translate(10 449.68585425597064) rotate(0 421 0.5)"><path d="M0 0 C140.33 0.17, 701.67 0.83, 842 1" stroke="#000000" stroke-width="1.5" fill="none" stroke-dasharray="1.5 7"></path></g></g><mask></mask><g stroke-linecap="round"><g transform="translate(549 46.68585425597064) rotate(0 -40.5 0)"><path d="M0 0 C-13.5 0, -67.5 0, -81 0 M0 0 C-13.5 0, -67.5 0, -81 0" stroke="#000000" stroke-width="1" fill="none"></path></g><g transform="translate(549 46.68585425597064) rotate(0 -40.5 0)"><path d="M-52.81 -10.26 C-63.83 -6.25, -74.85 -2.24, -81 0 M-52.81 -10.26 C-61.28 -7.18, -69.75 -4.09, -81 0" stroke="#000000" stroke-width="1" fill="none"></path></g><g transform="translate(549 46.68585425597064) rotate(0 -40.5 0)"><path d="M-52.81 10.26 C-63.83 6.25, -74.85 2.24, -81 0 M-52.81 10.26 C-61.28 7.18, -69.75 4.09, -81 0" stroke="#000000" stroke-width="1" fill="none"></path></g></g><mask></mask></svg>