<svg version="1.1" xmlns="http://www.w3.org/2000/svg" viewBox="0 0 1018.9799041748047 497.6858542559705" width="1018.9799041748047" height="497.6858542559705">
  <!-- svg-source:excalidraw -->
  
  <defs>
    <style class="style-fonts">
      @font-face {
        font-family: "Virgil";
        src: url("https://excalidraw.com/Virgil.woff2");
      }
      @font-face {
        font-family: "Cascadia";
        src: url("https://excalidraw.com/Cascadia.woff2");
      }
    </style>
  </defs>
  <rect x="0" y="0" width="1018.9799041748047" height="497.6858542559705" fill="#ffffff"></rect><g stroke-linecap="round" transform="translate(391.6515615431721 10) rotate(0 44.21769748928352 41)"><path d="M88.44 41 C88.44 42.94, 88.28 44.91, 87.99 46.83 C87.69 48.76, 87.24 50.68, 86.64 52.55 C86.05 54.42, 85.31 56.26, 84.44 58.03 C83.57 59.8, 82.55 61.53, 81.42 63.17 C80.28 64.8, 79.01 66.38, 77.64 67.85 C76.26 69.32, 74.76 70.71, 73.17 71.99 C71.59 73.26, 69.89 74.44, 68.12 75.49 C66.36 76.54, 64.49 77.49, 62.59 78.29 C60.68 79.1, 58.69 79.79, 56.68 80.34 C54.66 80.89, 52.59 81.31, 50.51 81.58 C48.43 81.86, 46.32 82, 44.22 82 C42.12 82, 40 81.86, 37.92 81.58 C35.85 81.31, 33.77 80.89, 31.76 80.34 C29.75 79.79, 27.76 79.1, 25.85 78.29 C23.94 77.49, 22.08 76.54, 20.31 75.49 C18.55 74.44, 16.85 73.26, 15.26 71.99 C13.68 70.71, 12.17 69.32, 10.8 67.85 C9.43 66.38, 8.15 64.8, 7.02 63.17 C5.89 61.53, 4.87 59.8, 4 58.03 C3.12 56.26, 2.38 54.42, 1.79 52.55 C1.2 50.68, 0.75 48.76, 0.45 46.83 C0.15 44.91, 0 42.94, 0 41 C0 39.06, 0.15 37.09, 0.45 35.17 C0.75 33.24, 1.2 31.32, 1.79 29.45 C2.38 27.58, 3.12 25.74, 4 23.97 C4.87 22.2, 5.89 20.47, 7.02 18.83 C8.15 17.2, 9.43 15.62, 10.8 14.15 C12.17 12.68, 13.68 11.29, 15.26 10.01 C16.85 8.74, 18.55 7.56, 20.31 6.51 C22.08 5.46, 23.94 4.51, 25.85 3.71 C27.76 2.9, 29.75 2.21, 31.76 1.66 C33.77 1.11, 35.85 0.69, 37.92 0.42 C40 0.14, 42.12 0, 44.22 0 C46.32 0, 48.43 0.14, 50.51 0.42 C52.59 0.69, 54.66 1.11, 56.68 1.66 C58.69 2.21, 60.68 2.9, 62.59 3.71 C64.49 4.51, 66.36 5.46, 68.12 6.51 C69.89 7.56, 71.59 8.74, 73.17 10.01 C74.76 11.29, 76.26 12.68, 77.64 14.15 C79.01 15.62, 80.28 17.2, 81.42 18.83 C82.55 20.47, 83.57 22.2, 84.44 23.97 C85.31 25.74, 86.05 27.58, 86.64 29.45 C87.24 31.32, 87.69 33.24, 87.99 35.17 C88.28 37.09, 88.36 40.03, 88.44 41 C88.51 41.97, 88.51 40.03, 88.44 41" stroke="#000000" stroke-width="1" fill="none"></path></g><g transform="translate(430.9319481042693 27.158621971351522) rotate(0 5.170677185058594 23.849999999999994)"><text x="5.170677185058594" y="0" font-family="Virgil, Segoe UI Emoji" font-size="38.160000000000004px" fill="#000000" text-anchor="middle" style="white-space: pre;" direction="ltr" dominant-baseline="text-before-edge">1</text></g><g stroke-linecap="round" transform="translate(193.17973055725656 218.39620330679736) rotate(0 44.21769748928352 41)"><path d="M88.44 41 C88.44 42.94, 88.28 44.91, 87.99 46.83 C87.69 48.76, 87.24 50.68, 86.64 52.55 C86.05 54.42, 85.31 56.26, 84.44 58.03 C83.57 59.8, 82.55 61.53, 81.42 63.17 C80.28 64.8, 79.01 66.38, 77.64 67.85 C76.26 69.32, 74.76 70.71, 73.17 71.99 C71.59 73.26, 69.89 74.44, 68.12 75.49 C66.36 76.54, 64.49 77.49, 62.59 78.29 C60.68 79.1, 58.69 79.79, 56.68 80.34 C54.66 80.89, 52.59 81.31, 50.51 81.58 C48.43 81.86, 46.32 82, 44.22 82 C42.12 82, 40 81.86, 37.92 81.58 C35.85 81.31, 33.77 80.89, 31.76 80.34 C29.75 79.79, 27.76 79.1, 25.85 78.29 C23.94 77.49, 22.08 76.54, 20.31 75.49 C18.55 74.44, 16.85 73.26, 15.26 71.99 C13.68 70.71, 12.17 69.32, 10.8 67.85 C9.43 66.38, 8.15 64.8, 7.02 63.17 C5.89 61.53, 4.87 59.8, 4 58.03 C3.12 56.26, 2.38 54.42, 1.79 52.55 C1.2 50.68, 0.75 48.76, 0.45 46.83 C0.15 44.91, 0 42.94, 0 41 C0 39.06, 0.15 37.09, 0.45 35.17 C0.75 33.24, 1.2 31.32, 1.79 29.45 C2.38 27.58, 3.12 25.74, 4 23.97 C4.87 22.2, 5.89 20.47, 7.02 18.83 C8.15 17.2, 9.43 15.62, 10.8 14.15 C12.17 12.68, 13.68 11.29, 15.26 10.01 C16.85 8.74, 18.55 7.56, 20.31 6.51 C22.08 5.46, 23.94 4.51, 25.85 3.71 C27.76 2.9, 29.75 2.21, 31.76 1.66 C33.77 1.11, 35.85 0.69, 37.92 0.42 C40 0.14, 42.12 0, 44.22 0 C46.32 0, 48.43 0.14, 50.51 0.42 C52.59 0.69, 54.66 1.11, 56.68 1.66 C58.69 2.21, 60.68 2.9, 62.59 3.71 C64.49 4.51, 66.36 5.46, 68.12 6.51 C69.89 7.56, 71.59 8.74, 73.17 10.01 C74.76 11.29, 76.26 12.68, 77.64 14.15 C79.01 15.62, 80.28 17.2, 81.42 18.83 C82.55 20.47, 83.57 22.2, 84.44 23.97 C85.31 25.74, 86.05 27.58, 86.64 29.45 C87.24 31.32, 87.69 33.24, 87.99 35.17 C88.28 37.09, 88.36 40.03, 88.44 41 C88.51 41.97, 88.51 40.03, 88.44 41" stroke="#000000" stroke-width="1" fill="none"></path></g><g transform="translate(224.0458409953069 235.55482527814888) rotate(0 13.584953308105469 23.850000000000023)"><text x="13.584953308105469" y="0" font-family="Virgil, Segoe UI Emoji" font-size="38.160000000000004px" fill="#000000" text-anchor="middle" style="white-space: pre;" direction="ltr" dominant-baseline="text-before-edge">2</text></g><g stroke-linecap="round" transform="translate(606.810471524801 227.80036742192294) rotate(0 44.21769748928352 41)"><path d="M88.44 41 C88.44 42.94, 88.28 44.91, 87.99 46.83 C87.69 48.76, 87.24 50.68, 86.64 52.55 C86.05 54.42, 85.31 56.26, 84.44 58.03 C83.57 59.8, 82.55 61.53, 81.42 63.17 C80.28 64.8, 79.01 66.38, 77.64 67.85 C76.26 69.32, 74.76 70.71, 73.17 71.99 C71.59 73.26, 69.89 74.44, 68.12 75.49 C66.36 76.54, 64.49 77.49, 62.59 78.29 C60.68 79.1, 58.69 79.79, 56.68 80.34 C54.66 80.89, 52.59 81.31, 50.51 81.58 C48.43 81.86, 46.32 82, 44.22 82 C42.12 82, 40 81.86, 37.92 81.58 C35.85 81.31, 33.77 80.89, 31.76 80.34 C29.75 79.79, 27.76 79.1, 25.85 78.29 C23.94 77.49, 22.08 76.54, 20.31 75.49 C18.55 74.44, 16.85 73.26, 15.26 71.99 C13.68 70.71, 12.17 69.32, 10.8 67.85 C9.43 66.38, 8.15 64.8, 7.02 63.17 C5.89 61.53, 4.87 59.8, 4 58.03 C3.12 56.26, 2.38 54.42, 1.79 52.55 C1.2 50.68, 0.75 48.76, 0.45 46.83 C0.15 44.91, 0 42.94, 0 41 C0 39.06, 0.15 37.09, 0.45 35.17 C0.75 33.24, 1.2 31.32, 1.79 29.45 C2.38 27.58, 3.12 25.74, 4 23.97 C4.87 22.2, 5.89 20.47, 7.02 18.83 C8.15 17.2, 9.43 15.62, 10.8 14.15 C12.17 12.68, 13.68 11.29, 15.26 10.01 C16.85 8.74, 18.55 7.56, 20.31 6.51 C22.08 5.46, 23.94 4.51, 25.85 3.71 C27.76 2.9, 29.75 2.21, 31.76 1.66 C33.77 1.11, 35.85 0.69, 37.92 0.42 C40 0.14, 42.12 0, 44.22 0 C46.32 0, 48.43 0.14, 50.51 0.42 C52.59 0.69, 54.66 1.11, 56.68 1.66 C58.69 2.21, 60.68 2.9, 62.59 3.71 C64.49 4.51, 66.36 5.46, 68.12 6.51 C69.89 7.56, 71.59 8.74, 73.17 10.01 C74.76 11.29, 76.26 12.68, 77.64 14.15 C79.01 15.62, 80.28 17.2, 81.42 18.83 C82.55 20.47, 83.57 22.2, 84.44 23.97 C85.31 25.74, 86.05 27.58, 86.64 29.45 C87.24 31.32, 87.69 33.24, 87.99 35.17 C88.28 37.09, 88.36 40.03, 88.44 41 C88.51 41.97, 88.51 40.03, 88.44 41" stroke="#000000" stroke-width="1" fill="none"></path></g><g transform="translate(638.268058403281 244.95898939327446) rotate(0 12.993476867675781 23.850000000000023)"><text x="12.993476867675781" y="0" font-family="Virgil, Segoe UI Emoji" font-size="38.160000000000004px" fill="#000000" text-anchor="middle" style="white-space: pre;" direction="ltr" dominant-baseline="text-before-edge">3</text></g><g stroke-linecap="round" transform="translate(712.5214329454991 392.0753214941825) rotate(0 44.21769748928352 41)"><path d="M88.44 41 C88.44 42.94, 88.28 44.91, 87.99 46.83 C87.69 48.76, 87.24 50.68, 86.64 52.55 C86.05 54.42, 85.31 56.26, 84.44 58.03 C83.57 59.8, 82.55 61.53, 81.42 63.17 C80.28 64.8, 79.01 66.38, 77.64 67.85 C76.26 69.32, 74.76 70.71, 73.17 71.99 C71.59 73.26, 69.89 74.44, 68.12 75.49 C66.36 76.54, 64.49 77.49, 62.59 78.29 C60.68 79.1, 58.69 79.79, 56.68 80.34 C54.66 80.89, 52.59 81.31, 50.51 81.58 C48.43 81.86, 46.32 82, 44.22 82 C42.12 82, 40 81.86, 37.92 81.58 C35.85 81.31, 33.77 80.89, 31.76 80.34 C29.75 79.79, 27.76 79.1, 25.85 78.29 C23.94 77.49, 22.08 76.54, 20.31 75.49 C18.55 74.44, 16.85 73.26, 15.26 71.99 C13.68 70.71, 12.17 69.32, 10.8 67.85 C9.43 66.38, 8.15 64.8, 7.02 63.17 C5.89 61.53, 4.87 59.8, 4 58.03 C3.12 56.26, 2.38 54.42, 1.79 52.55 C1.2 50.68, 0.75 48.76, 0.45 46.83 C0.15 44.91, 0 42.94, 0 41 C0 39.06, 0.15 37.09, 0.45 35.17 C0.75 33.24, 1.2 31.32, 1.79 29.45 C2.38 27.58, 3.12 25.74, 4 23.97 C4.87 22.2, 5.89 20.47, 7.02 18.83 C8.15 17.2, 9.43 15.62, 10.8 14.15 C12.17 12.68, 13.68 11.29, 15.26 10.01 C16.85 8.74, 18.55 7.56, 20.31 6.51 C22.08 5.46, 23.94 4.51, 25.85 3.71 C27.76 2.9, 29.75 2.21, 31.76 1.66 C33.77 1.11, 35.85 0.69, 37.92 0.42 C40 0.14, 42.12 0, 44.22 0 C46.32 0, 48.43 0.14, 50.51 0.42 C52.59 0.69, 54.66 1.11, 56.68 1.66 C58.69 2.21, 60.68 2.9, 62.59 3.71 C64.49 4.51, 66.36 5.46, 68.12 6.51 C69.89 7.56, 71.59 8.74, 73.17 10.01 C74.76 11.29, 76.26 12.68, 77.64 14.15 C79.01 15.62, 80.28 17.2, 81.42 18.83 C82.55 20.47, 83.57 22.2, 84.44 23.97 C85.31 25.74, 86.05 27.58, 86.64 29.45 C87.24 31.32, 87.69 33.24, 87.99 35.17 C88.28 37.09, 88.36 40.03, 88.44 41 C88.51 41.97, 88.51 40.03, 88.44 41" stroke="#000000" stroke-width="1" fill="none"></path></g><g transform="translate(746.7074591550338 409.233943465534) rotate(0 10.265037536621094 23.850000000000023)"><text x="10.265037536621094" y="0" font-family="Virgil, Segoe UI Emoji" font-size="38.160000000000004px" fill="#000000" text-anchor="middle" style="white-space: pre;" direction="ltr" dominant-baseline="text-before-edge">7</text></g><g stroke-linecap="round"><g transform="translate(396.5347611600878 71.71619940267414) rotate(0 -63.01482750961537 76.46279102628415)"><path d="M0 0 C-21 25.49, -105.02 127.44, -126.03 152.93 M0 0 C-21 25.49, -105.02 127.44, -126.03 152.93" stroke="#000000" stroke-width="1" fill="none"></path></g><g transform="translate(396.5347611600878 71.71619940267414) rotate(0 -63.01482750961537 76.46279102628415)"><path d="M-116.02 124.65 C-119.7 135.05, -123.38 145.45, -126.03 152.93 M-116.02 124.65 C-118.79 132.48, -121.56 140.31, -126.03 152.93" stroke="#000000" stroke-width="1" fill="none"></path></g><g transform="translate(396.5347611600878 71.71619940267414) rotate(0 -63.01482750961537 76.46279102628415)"><path d="M-100.18 137.7 C-109.69 143.3, -119.2 148.9, -126.03 152.93 M-100.18 137.7 C-107.34 141.91, -114.5 146.13, -126.03 152.93" stroke="#000000" stroke-width="1" fill="none"></path></g></g><mask></mask><g stroke-linecap="round"><g transform="translate(470.80822029888907 79.79386179251458) rotate(0 77.84910683261194 74.33318744651513)"><path d="M0 0 C25.95 24.78, 129.75 123.89, 155.7 148.67 M0 0 C25.95 24.78, 129.75 123.89, 155.7 148.67" stroke="#000000" stroke-width="1" fill="none"></path></g><g transform="translate(470.80822029888907 79.79386179251458) rotate(0 77.84910683261194 74.33318744651513)"><path d="M128.22 136.62 C139.17 141.42, 150.12 146.22, 155.7 148.67 M128.22 136.62 C138.9 141.3, 149.58 145.98, 155.7 148.67" stroke="#000000" stroke-width="1" fill="none"></path></g><g transform="translate(470.80822029888907 79.79386179251458) rotate(0 77.84910683261194 74.33318744651513)"><path d="M142.4 121.78 C147.7 132.49, 153 143.2, 155.7 148.67 M142.4 121.78 C147.56 132.23, 152.73 142.68, 155.7 148.67" stroke="#000000" stroke-width="1" fill="none"></path></g></g><mask></mask><g transform="translate(764 92.68585425597064) rotate(0 122.48995208740234 22.5)"><text x="0" y="0" font-family="Virgil, Segoe UI Emoji" font-size="36px" fill="#000000" text-anchor="start" style="white-space: pre;" direction="ltr" dominant-baseline="text-before-edge">Not Complete!</text></g><g stroke-linecap="round" transform="translate(301.7823025107165 405.6858542559705) rotate(0 44.21769748928352 41)"><path d="M88.44 41 C88.44 42.94, 88.28 44.91, 87.99 46.83 C87.69 48.76, 87.24 50.68, 86.64 52.55 C86.05 54.42, 85.31 56.26, 84.44 58.03 C83.57 59.8, 82.55 61.53, 81.42 63.17 C80.28 64.8, 79.01 66.38, 77.64 67.85 C76.26 69.32, 74.76 70.71, 73.17 71.99 C71.59 73.26, 69.89 74.44, 68.12 75.49 C66.36 76.54, 64.49 77.49, 62.59 78.29 C60.68 79.1, 58.69 79.79, 56.68 80.34 C54.66 80.89, 52.59 81.31, 50.51 81.58 C48.43 81.86, 46.32 82, 44.22 82 C42.12 82, 40 81.86, 37.92 81.58 C35.85 81.31, 33.77 80.89, 31.76 80.34 C29.75 79.79, 27.76 79.1, 25.85 78.29 C23.94 77.49, 22.08 76.54, 20.31 75.49 C18.55 74.44, 16.85 73.26, 15.26 71.99 C13.68 70.71, 12.17 69.32, 10.8 67.85 C9.43 66.38, 8.15 64.8, 7.02 63.17 C5.89 61.53, 4.87 59.8, 4 58.03 C3.12 56.26, 2.38 54.42, 1.79 52.55 C1.2 50.68, 0.75 48.76, 0.45 46.83 C0.15 44.91, 0 42.94, 0 41 C0 39.06, 0.15 37.09, 0.45 35.17 C0.75 33.24, 1.2 31.32, 1.79 29.45 C2.38 27.58, 3.12 25.74, 4 23.97 C4.87 22.2, 5.89 20.47, 7.02 18.83 C8.15 17.2, 9.43 15.62, 10.8 14.15 C12.17 12.68, 13.68 11.29, 15.26 10.01 C16.85 8.74, 18.55 7.56, 20.31 6.51 C22.08 5.46, 23.94 4.51, 25.85 3.71 C27.76 2.9, 29.75 2.21, 31.76 1.66 C33.77 1.11, 35.85 0.69, 37.92 0.42 C40 0.14, 42.12 0, 44.22 0 C46.32 0, 48.43 0.14, 50.51 0.42 C52.59 0.69, 54.66 1.11, 56.68 1.66 C58.69 2.21, 60.68 2.9, 62.59 3.71 C64.49 4.51, 66.36 5.46, 68.12 6.51 C69.89 7.56, 71.59 8.74, 73.17 10.01 C74.76 11.29, 76.26 12.68, 77.64 14.15 C79.01 15.62, 80.28 17.2, 81.42 18.83 C82.55 20.47, 83.57 22.2, 84.44 23.97 C85.31 25.74, 86.05 27.58, 86.64 29.45 C87.24 31.32, 87.69 33.24, 87.99 35.17 C88.28 37.09, 88.36 40.03, 88.44 41 C88.51 41.97, 88.51 40.03, 88.44 41" stroke="#000000" stroke-width="1" fill="none"></path></g><g transform="translate(334.44193101517305 422.84447622732205) rotate(0 11.791435241699219 23.850000000000023)"><text x="11.791435241699219" y="0" font-family="Virgil, Segoe UI Emoji" font-size="38.160000000000004px" fill="#000000" text-anchor="middle" style="white-space: pre;" direction="ltr" dominant-baseline="text-before-edge">5</text></g><g stroke-linecap="round" transform="translate(492.7823025107165 402.68585425597075) rotate(0 44.21769748928352 41)"><path d="M88.44 41 C88.44 42.94, 88.28 44.91, 87.99 46.83 C87.69 48.76, 87.24 50.68, 86.64 52.55 C86.05 54.42, 85.31 56.26, 84.44 58.03 C83.57 59.8, 82.55 61.53, 81.42 63.17 C80.28 64.8, 79.01 66.38, 77.64 67.85 C76.26 69.32, 74.76 70.71, 73.17 71.99 C71.59 73.26, 69.89 74.44, 68.12 75.49 C66.36 76.54, 64.49 77.49, 62.59 78.29 C60.68 79.1, 58.69 79.79, 56.68 80.34 C54.66 80.89, 52.59 81.31, 50.51 81.58 C48.43 81.86, 46.32 82, 44.22 82 C42.12 82, 40 81.86, 37.92 81.58 C35.85 81.31, 33.77 80.89, 31.76 80.34 C29.75 79.79, 27.76 79.1, 25.85 78.29 C23.94 77.49, 22.08 76.54, 20.31 75.49 C18.55 74.44, 16.85 73.26, 15.26 71.99 C13.68 70.71, 12.17 69.32, 10.8 67.85 C9.43 66.38, 8.15 64.8, 7.02 63.17 C5.89 61.53, 4.87 59.8, 4 58.03 C3.12 56.26, 2.38 54.42, 1.79 52.55 C1.2 50.68, 0.75 48.76, 0.45 46.83 C0.15 44.91, 0 42.94, 0 41 C0 39.06, 0.15 37.09, 0.45 35.17 C0.75 33.24, 1.2 31.32, 1.79 29.45 C2.38 27.58, 3.12 25.74, 4 23.97 C4.87 22.2, 5.89 20.47, 7.02 18.83 C8.15 17.2, 9.43 15.62, 10.8 14.15 C12.17 12.68, 13.68 11.29, 15.26 10.01 C16.85 8.74, 18.55 7.56, 20.31 6.51 C22.08 5.46, 23.94 4.51, 25.85 3.71 C27.76 2.9, 29.75 2.21, 31.76 1.66 C33.77 1.11, 35.85 0.69, 37.92 0.42 C40 0.14, 42.12 0, 44.22 0 C46.32 0, 48.43 0.14, 50.51 0.42 C52.59 0.69, 54.66 1.11, 56.68 1.66 C58.69 2.21, 60.68 2.9, 62.59 3.71 C64.49 4.51, 66.36 5.46, 68.12 6.51 C69.89 7.56, 71.59 8.74, 73.17 10.01 C74.76 11.29, 76.26 12.68, 77.64 14.15 C79.01 15.62, 80.28 17.2, 81.42 18.83 C82.55 20.47, 83.57 22.2, 84.44 23.97 C85.31 25.74, 86.05 27.58, 86.64 29.45 C87.24 31.32, 87.69 33.24, 87.99 35.17 C88.28 37.09, 88.36 40.03, 88.44 41 C88.51 41.97, 88.51 40.03, 88.44 41" stroke="#000000" stroke-width="1" fill="none"></path></g><g transform="translate(525.0221693574582 419.8444762273223) rotate(0 12.211196899414062 23.850000000000023)"><text x="12.211196899414062" y="0" font-family="Virgil, Segoe UI Emoji" font-size="38.160000000000004px" fill="#000000" text-anchor="middle" style="white-space: pre;" direction="ltr" dominant-baseline="text-before-edge">6</text></g><g stroke-linecap="round"><g transform="translate(270 290.68585425597064) rotate(0 30 52)"><path d="M0 0 C10 17.33, 50 86.67, 60 104 M0 0 C10 17.33, 50 86.67, 60 104" stroke="#000000" stroke-width="1" fill="none"></path></g><g transform="translate(270 290.68585425597064) rotate(0 30 52)"><path d="M37.02 84.71 C44.18 90.72, 51.34 96.73, 60 104 M37.02 84.71 C44.56 91.03, 52.09 97.36, 60 104" stroke="#000000" stroke-width="1" fill="none"></path></g><g transform="translate(270 290.68585425597064) rotate(0 30 52)"><path d="M54.8 74.45 C56.42 83.66, 58.04 92.86, 60 104 M54.8 74.45 C56.51 84.14, 58.21 93.83, 60 104" stroke="#000000" stroke-width="1" fill="none"></path></g></g><mask></mask><g stroke-linecap="round"><g transform="translate(624 308.68585425597064) rotate(0 -31 48)"><path d="M0 0 C-10.33 16, -51.67 80, -62 96 M0 0 C-10.33 16, -51.67 80, -62 96" stroke="#000000" stroke-width="1" fill="none"></path></g><g transform="translate(624 308.68585425597064) rotate(0 -31 48)"><path d="M-55.33 66.75 C-57.05 74.32, -58.78 81.88, -62 96 M-55.33 66.75 C-57.69 77.12, -60.06 87.48, -62 96" stroke="#000000" stroke-width="1" fill="none"></path></g><g transform="translate(624 308.68585425597064) rotate(0 -31 48)"><path d="M-38.09 77.89 C-44.27 82.57, -50.46 87.26, -62 96 M-38.09 77.89 C-46.56 84.3, -55.03 90.72, -62 96" stroke="#000000" stroke-width="1" fill="none"></path></g></g><mask></mask><g stroke-linecap="round"><g transform="translate(684 306.68585425597064) rotate(0 29 39.5)"><path d="M0 0 C9.67 13.17, 48.33 65.83, 58 79 M0 0 C9.67 13.17, 48.33 65.83, 58 79" stroke="#000000" stroke-width="1" fill="none"></path></g><g transform="translate(684 306.68585425597064) rotate(0 29 39.5)"><path d="M33.05 62.35 C39.83 66.88, 46.62 71.4, 58 79 M33.05 62.35 C40.4 67.26, 47.76 72.17, 58 79" stroke="#000000" stroke-width="1" fill="none"></path></g><g transform="translate(684 306.68585425597064) rotate(0 29 39.5)"><path d="M49.59 50.2 C51.88 58.03, 54.16 65.87, 58 79 M49.59 50.2 C52.07 58.69, 54.55 67.18, 58 79" stroke="#000000" stroke-width="1" fill="none"></path></g></g><mask></mask><g transform="translate(10 253.68585425597064) rotate(0 40.40998077392578 22.5)"><text x="0" y="0" font-family="Virgil, Segoe UI Emoji" font-size="36px" fill="#000000" text-anchor="start" style="white-space: pre;" direction="ltr" dominant-baseline="text-before-edge">Gap!</text></g><g stroke-linecap="round"><g transform="translate(49.70108036922571 295.8658927081191) rotate(0 32.64945981538715 45.40998077392578)"><path d="M0 0 C10.88 15.14, 54.42 75.68, 65.3 90.82 M0 0 C10.88 15.14, 54.42 75.68, 65.3 90.82" stroke="#000000" stroke-width="1" fill="none"></path></g><g transform="translate(49.70108036922571 295.8658927081191) rotate(0 32.64945981538715 45.40998077392578)"><path d="M40.51 73.92 C49.97 80.37, 59.42 86.81, 65.3 90.82 M40.51 73.92 C47.9 78.96, 55.29 83.99, 65.3 90.82" stroke="#000000" stroke-width="1" fill="none"></path></g><g transform="translate(49.70108036922571 295.8658927081191) rotate(0 32.64945981538715 45.40998077392578)"><path d="M57.17 61.94 C60.27 72.96, 63.37 83.97, 65.3 90.82 M57.17 61.94 C59.59 70.55, 62.02 79.16, 65.3 90.82" stroke="#000000" stroke-width="1" fill="none"></path></g></g><mask></mask><g stroke-linecap="round"><g transform="translate(123 469.68585425597064) rotate(0 22.5 -31.5)"><path d="M0 0 C7.5 -10.5, 37.5 -52.5, 45 -63 M0 0 C7.5 -10.5, 37.5 -52.5, 45 -63" stroke="#e67700" stroke-width="1" fill="none"></path></g></g><mask></mask><g stroke-linecap="round"><g transform="translate(121 410.68585425597064) rotate(0 23.5 27.5)"><path d="M0 0 C7.83 9.17, 39.17 45.83, 47 55 M0 0 C7.83 9.17, 39.17 45.83, 47 55" stroke="#e67700" stroke-width="1" fill="none"></path></g></g><mask></mask></svg>