<svg version="1.1" xmlns="http://www.w3.org/2000/svg" viewBox="0 0 1003.6294725250452 392" width="1003.6294725250452" height="392">
  <!-- svg-source:excalidraw -->
  
  <defs>
    <style class="style-fonts">
      @font-face {
        font-family: "Virgil";
        src: url("https://excalidraw.com/Virgil.woff2");
      }
      @font-face {
        font-family: "Cascadia";
        src: url("https://excalidraw.com/Cascadia.woff2");
      }
    </style>
  </defs>
  <rect x="0" y="0" width="1003.6294725250452" height="392" fill="#ffffff"></rect><g stroke-linecap="round" transform="translate(344.86953905336554 10) rotate(0 39 39)"><path d="M33.24 -0.03 C40.11 -1.86, 48.42 0.63, 55.24 4.25 C62.06 7.86, 70.27 14.97, 74.16 21.69 C78.05 28.41, 79.82 37.1, 78.56 44.56 C77.31 52.02, 72.18 60.91, 66.64 66.44 C61.11 71.97, 52.73 76.51, 45.37 77.72 C38 78.92, 29.38 76.94, 22.46 73.66 C15.53 70.39, 7.63 64.73, 3.8 58.07 C-0.02 51.42, -1.84 41.42, -0.48 33.72 C0.88 26.02, 6.08 17.58, 11.97 11.88 C17.85 6.18, 30.66 1.41, 34.81 -0.48 C38.96 -2.38, 36.8 -0.4, 36.85 0.51 M28.15 1.31 C35.29 -1.25, 47.67 -1.12, 54.87 1.68 C62.07 4.48, 67.29 11.67, 71.36 18.11 C75.42 24.55, 79.84 32.78, 79.27 40.32 C78.7 47.86, 73.12 57.02, 67.93 63.35 C62.74 69.68, 55.24 76.13, 48.14 78.28 C41.03 80.43, 32.42 79.52, 25.32 76.26 C18.22 73.01, 9.85 65.12, 5.52 58.74 C1.19 52.36, -1.44 45.58, -0.67 37.99 C0.11 30.39, 5.25 19.38, 10.16 13.17 C15.07 6.96, 25.69 2.48, 28.79 0.73 C31.9 -1.03, 28.49 1.91, 28.78 2.64" stroke="#000000" stroke-width="1" fill="none"></path></g><g transform="translate(378.9143762350394 26.42283553372465) rotate(0 4.877998352050781 22.5)"><text x="4.877998352050781" y="0" font-family="Virgil, Segoe UI Emoji" font-size="36px" fill="#000000" text-anchor="middle" style="white-space: pre;" direction="ltr" dominant-baseline="text-before-edge">1</text></g><g stroke-linecap="round" transform="translate(155.86953905336554 134) rotate(0 39 39)"><path d="M33.24 -0.03 C40.11 -1.86, 48.42 0.63, 55.24 4.25 C62.06 7.86, 70.27 14.97, 74.16 21.69 C78.05 28.41, 79.82 37.1, 78.56 44.56 C77.31 52.02, 72.18 60.91, 66.64 66.44 C61.11 71.97, 52.73 76.51, 45.37 77.72 C38 78.92, 29.38 76.94, 22.46 73.66 C15.53 70.39, 7.63 64.73, 3.8 58.07 C-0.02 51.42, -1.84 41.42, -0.48 33.72 C0.88 26.02, 6.08 17.58, 11.97 11.88 C17.85 6.18, 30.66 1.41, 34.81 -0.48 C38.96 -2.38, 36.8 -0.4, 36.85 0.51 M28.15 1.31 C35.29 -1.25, 47.67 -1.12, 54.87 1.68 C62.07 4.48, 67.29 11.67, 71.36 18.11 C75.42 24.55, 79.84 32.78, 79.27 40.32 C78.7 47.86, 73.12 57.02, 67.93 63.35 C62.74 69.68, 55.24 76.13, 48.14 78.28 C41.03 80.43, 32.42 79.52, 25.32 76.26 C18.22 73.01, 9.85 65.12, 5.52 58.74 C1.19 52.36, -1.44 45.58, -0.67 37.99 C0.11 30.39, 5.25 19.38, 10.16 13.17 C15.07 6.96, 25.69 2.48, 28.79 0.73 C31.9 -1.03, 28.49 1.91, 28.78 2.64" stroke="#000000" stroke-width="1" fill="none"></path></g><g transform="translate(181.97638032439488 150.42283553372465) rotate(0 12.815994262695312 22.5)"><text x="12.815994262695312" y="0" font-family="Virgil, Segoe UI Emoji" font-size="36px" fill="#000000" text-anchor="middle" style="white-space: pre;" direction="ltr" dominant-baseline="text-before-edge">2</text></g><g stroke-linecap="round" transform="translate(517.8695390533655 139) rotate(0 39 39)"><path d="M33.24 -0.03 C40.11 -1.86, 48.42 0.63, 55.24 4.25 C62.06 7.86, 70.27 14.97, 74.16 21.69 C78.05 28.41, 79.82 37.1, 78.56 44.56 C77.31 52.02, 72.18 60.91, 66.64 66.44 C61.11 71.97, 52.73 76.51, 45.37 77.72 C38 78.92, 29.38 76.94, 22.46 73.66 C15.53 70.39, 7.63 64.73, 3.8 58.07 C-0.02 51.42, -1.84 41.42, -0.48 33.72 C0.88 26.02, 6.08 17.58, 11.97 11.88 C17.85 6.18, 30.66 1.41, 34.81 -0.48 C38.96 -2.38, 36.8 -0.4, 36.85 0.51 M28.15 1.31 C35.29 -1.25, 47.67 -1.12, 54.87 1.68 C62.07 4.48, 67.29 11.67, 71.36 18.11 C75.42 24.55, 79.84 32.78, 79.27 40.32 C78.7 47.86, 73.12 57.02, 67.93 63.35 C62.74 69.68, 55.24 76.13, 48.14 78.28 C41.03 80.43, 32.42 79.52, 25.32 76.26 C18.22 73.01, 9.85 65.12, 5.52 58.74 C1.19 52.36, -1.44 45.58, -0.67 37.99 C0.11 30.39, 5.25 19.38, 10.16 13.17 C15.07 6.96, 25.69 2.48, 28.79 0.73 C31.9 -1.03, 28.49 1.91, 28.78 2.64" stroke="#000000" stroke-width="1" fill="none"></path></g><g transform="translate(544.5343789816213 155.42283553372465) rotate(0 12.25799560546875 22.5)"><text x="12.25799560546875" y="0" font-family="Virgil, Segoe UI Emoji" font-size="36px" fill="#000000" text-anchor="middle" style="white-space: pre;" direction="ltr" dominant-baseline="text-before-edge">3</text></g><g stroke-linecap="round" transform="translate(10.869539053365543 302) rotate(0 39 39)"><path d="M33.24 -0.03 C40.11 -1.86, 48.42 0.63, 55.24 4.25 C62.06 7.86, 70.27 14.97, 74.16 21.69 C78.05 28.41, 79.82 37.1, 78.56 44.56 C77.31 52.02, 72.18 60.91, 66.64 66.44 C61.11 71.97, 52.73 76.51, 45.37 77.72 C38 78.92, 29.38 76.94, 22.46 73.66 C15.53 70.39, 7.63 64.73, 3.8 58.07 C-0.02 51.42, -1.84 41.42, -0.48 33.72 C0.88 26.02, 6.08 17.58, 11.97 11.88 C17.85 6.18, 30.66 1.41, 34.81 -0.48 C38.96 -2.38, 36.8 -0.4, 36.85 0.51 M28.15 1.31 C35.29 -1.25, 47.67 -1.12, 54.87 1.68 C62.07 4.48, 67.29 11.67, 71.36 18.11 C75.42 24.55, 79.84 32.78, 79.27 40.32 C78.7 47.86, 73.12 57.02, 67.93 63.35 C62.74 69.68, 55.24 76.13, 48.14 78.28 C41.03 80.43, 32.42 79.52, 25.32 76.26 C18.22 73.01, 9.85 65.12, 5.52 58.74 C1.19 52.36, -1.44 45.58, -0.67 37.99 C0.11 30.39, 5.25 19.38, 10.16 13.17 C15.07 6.96, 25.69 2.48, 28.79 0.73 C31.9 -1.03, 28.49 1.91, 28.78 2.64" stroke="#000000" stroke-width="1" fill="none"></path></g><g transform="translate(38.27237794402379 318.42283553372465) rotate(0 11.519996643066406 22.5)"><text x="11.519996643066406" y="0" font-family="Virgil, Segoe UI Emoji" font-size="36px" fill="#000000" text-anchor="middle" style="white-space: pre;" direction="ltr" dominant-baseline="text-before-edge">4</text></g><g stroke-linecap="round" transform="translate(273.86953905336554 302) rotate(0 39 39)"><path d="M33.24 -0.03 C40.11 -1.86, 48.42 0.63, 55.24 4.25 C62.06 7.86, 70.27 14.97, 74.16 21.69 C78.05 28.41, 79.82 37.1, 78.56 44.56 C77.31 52.02, 72.18 60.91, 66.64 66.44 C61.11 71.97, 52.73 76.51, 45.37 77.72 C38 78.92, 29.38 76.94, 22.46 73.66 C15.53 70.39, 7.63 64.73, 3.8 58.07 C-0.02 51.42, -1.84 41.42, -0.48 33.72 C0.88 26.02, 6.08 17.58, 11.97 11.88 C17.85 6.18, 30.66 1.41, 34.81 -0.48 C38.96 -2.38, 36.8 -0.4, 36.85 0.51 M28.15 1.31 C35.29 -1.25, 47.67 -1.12, 54.87 1.68 C62.07 4.48, 67.29 11.67, 71.36 18.11 C75.42 24.55, 79.84 32.78, 79.27 40.32 C78.7 47.86, 73.12 57.02, 67.93 63.35 C62.74 69.68, 55.24 76.13, 48.14 78.28 C41.03 80.43, 32.42 79.52, 25.32 76.26 C18.22 73.01, 9.85 65.12, 5.52 58.74 C1.19 52.36, -1.44 45.58, -0.67 37.99 C0.11 30.39, 5.25 19.38, 10.16 13.17 C15.07 6.96, 25.69 2.48, 28.79 0.73 C31.9 -1.03, 28.49 1.91, 28.78 2.64" stroke="#000000" stroke-width="1" fill="none"></path></g><g transform="translate(301.6683816671683 318.42283553372465) rotate(0 11.123992919921875 22.5)"><text x="11.123992919921875" y="0" font-family="Virgil, Segoe UI Emoji" font-size="36px" fill="#000000" text-anchor="middle" style="white-space: pre;" direction="ltr" dominant-baseline="text-before-edge">5</text></g><g stroke-linecap="round" transform="translate(399.86953905336554 303) rotate(0 39 39)"><path d="M33.24 -0.03 C40.11 -1.86, 48.42 0.63, 55.24 4.25 C62.06 7.86, 70.27 14.97, 74.16 21.69 C78.05 28.41, 79.82 37.1, 78.56 44.56 C77.31 52.02, 72.18 60.91, 66.64 66.44 C61.11 71.97, 52.73 76.51, 45.37 77.72 C38 78.92, 29.38 76.94, 22.46 73.66 C15.53 70.39, 7.63 64.73, 3.8 58.07 C-0.02 51.42, -1.84 41.42, -0.48 33.72 C0.88 26.02, 6.08 17.58, 11.97 11.88 C17.85 6.18, 30.66 1.41, 34.81 -0.48 C38.96 -2.38, 36.8 -0.4, 36.85 0.51 M28.15 1.31 C35.29 -1.25, 47.67 -1.12, 54.87 1.68 C62.07 4.48, 67.29 11.67, 71.36 18.11 C75.42 24.55, 79.84 32.78, 79.27 40.32 C78.7 47.86, 73.12 57.02, 67.93 63.35 C62.74 69.68, 55.24 76.13, 48.14 78.28 C41.03 80.43, 32.42 79.52, 25.32 76.26 C18.22 73.01, 9.85 65.12, 5.52 58.74 C1.19 52.36, -1.44 45.58, -0.67 37.99 C0.11 30.39, 5.25 19.38, 10.16 13.17 C15.07 6.96, 25.69 2.48, 28.79 0.73 C31.9 -1.03, 28.49 1.91, 28.78 2.64" stroke="#000000" stroke-width="1" fill="none"></path></g><g transform="translate(427.2723779440238 319.42283553372465) rotate(0 11.519996643066406 22.5)"><text x="11.519996643066406" y="0" font-family="Virgil, Segoe UI Emoji" font-size="36px" fill="#000000" text-anchor="middle" style="white-space: pre;" direction="ltr" dominant-baseline="text-before-edge">6</text></g><g stroke-linecap="round" transform="translate(647.8695390533655 304) rotate(0 39 39)"><path d="M33.24 -0.03 C40.11 -1.86, 48.42 0.63, 55.24 4.25 C62.06 7.86, 70.27 14.97, 74.16 21.69 C78.05 28.41, 79.82 37.1, 78.56 44.56 C77.31 52.02, 72.18 60.91, 66.64 66.44 C61.11 71.97, 52.73 76.51, 45.37 77.72 C38 78.92, 29.38 76.94, 22.46 73.66 C15.53 70.39, 7.63 64.73, 3.8 58.07 C-0.02 51.42, -1.84 41.42, -0.48 33.72 C0.88 26.02, 6.08 17.58, 11.97 11.88 C17.85 6.18, 30.66 1.41, 34.81 -0.48 C38.96 -2.38, 36.8 -0.4, 36.85 0.51 M28.15 1.31 C35.29 -1.25, 47.67 -1.12, 54.87 1.68 C62.07 4.48, 67.29 11.67, 71.36 18.11 C75.42 24.55, 79.84 32.78, 79.27 40.32 C78.7 47.86, 73.12 57.02, 67.93 63.35 C62.74 69.68, 55.24 76.13, 48.14 78.28 C41.03 80.43, 32.42 79.52, 25.32 76.26 C18.22 73.01, 9.85 65.12, 5.52 58.74 C1.19 52.36, -1.44 45.58, -0.67 37.99 C0.11 30.39, 5.25 19.38, 10.16 13.17 C15.07 6.96, 25.69 2.48, 28.79 0.73 C31.9 -1.03, 28.49 1.91, 28.78 2.64" stroke="#000000" stroke-width="1" fill="none"></path></g><g transform="translate(677.1083764791799 320.42283553372465) rotate(0 9.683998107910156 22.5)"><text x="9.683998107910156" y="0" font-family="Virgil, Segoe UI Emoji" font-size="36px" fill="#000000" text-anchor="middle" style="white-space: pre;" direction="ltr" dominant-baseline="text-before-edge">7</text></g><g stroke-linecap="round"><g transform="translate(345.86953905336554 51) rotate(0 -58.472557232193594 46.48604221656919)"><path d="M0.81 0.26 C-18.76 15.53, -96.87 77.01, -116.53 92.4 M-0.22 -0.64 C-20.08 14.7, -98.65 77.9, -117.76 93.62" stroke="#000000" stroke-width="1" fill="none"></path></g><g transform="translate(345.86953905336554 51) rotate(0 -58.472557232193594 46.48604221656919)"><path d="M-101.89 67 C-108.96 75.72, -114.44 86.45, -119.47 94.38 M-101.79 67.25 C-105.76 73.93, -108.43 80.63, -116.88 92.91" stroke="#000000" stroke-width="1" fill="none"></path></g><g transform="translate(345.86953905336554 51) rotate(0 -58.472557232193594 46.48604221656919)"><path d="M-88.96 82.94 C-100.99 85.76, -111.34 90.5, -119.47 94.38 M-88.86 83.19 C-95.88 86.3, -101.53 89.34, -116.88 92.91" stroke="#000000" stroke-width="1" fill="none"></path></g></g><mask></mask><g stroke-linecap="round"><g transform="translate(165.86953905336554 210) rotate(0 -44.68336901369503 46.97879517210649)"><path d="M0.91 0.37 C-13.93 15.99, -74.24 77.32, -89.22 92.93 M-0.07 -0.48 C-15.08 15.41, -75.34 78.98, -90.28 94.44" stroke="#000000" stroke-width="1" fill="none"></path></g><g transform="translate(165.86953905336554 210) rotate(0 -44.68336901369503 46.97879517210649)"><path d="M-77.6 66.61 C-81.97 75.04, -83.58 83.24, -92.16 95.14 M-78.71 67.35 C-81.79 76.55, -88.17 87.85, -89.68 94.88" stroke="#000000" stroke-width="1" fill="none"></path></g><g transform="translate(165.86953905336554 210) rotate(0 -44.68336901369503 46.97879517210649)"><path d="M-62.77 80.78 C-71.3 85.26, -77.16 89.39, -92.16 95.14 M-63.87 81.53 C-72.63 85.44, -84.63 91.37, -89.68 94.88" stroke="#000000" stroke-width="1" fill="none"></path></g></g><mask></mask><g stroke-linecap="round"><g transform="translate(228.86953905336554 203) rotate(0 36.418914444372035 50.23260568544271)"><path d="M-0.66 0.91 C11.51 17.33, 61.37 82.54, 73.5 98.73 M1.19 0.34 C13.21 16.93, 60.58 83.71, 72.81 100.13" stroke="#000000" stroke-width="1" fill="none"></path></g><g transform="translate(228.86953905336554 203) rotate(0 36.418914444372035 50.23260568544271)"><path d="M49.47 84.15 C55.95 87.69, 63.21 94.17, 70.84 99.87 M48.71 83.68 C54.57 88.59, 61.85 93.03, 72.27 100.3" stroke="#000000" stroke-width="1" fill="none"></path></g><g transform="translate(228.86953905336554 203) rotate(0 36.418914444372035 50.23260568544271)"><path d="M66.09 72.11 C66.96 79.63, 68.6 90.18, 70.84 99.87 M65.32 71.64 C66.81 79.75, 69.62 87.43, 72.27 100.3" stroke="#000000" stroke-width="1" fill="none"></path></g></g><mask></mask><g stroke-linecap="round"><g transform="translate(418.86953905336554 70) rotate(0 56.25475608658979 37.81439609202556)"><path d="M0.81 -0.67 C19.61 11.99, 94.06 62.58, 112.74 75.19 M-0.23 1.6 C18.49 14.45, 93.38 63.94, 112.18 76.3" stroke="#000000" stroke-width="1" fill="none"></path></g><g transform="translate(418.86953905336554 70) rotate(0 56.25475608658979 37.81439609202556)"><path d="M81.88 70.57 C90.17 72.67, 98.36 74.36, 112.33 77.67 M82.78 69.28 C92.99 72.16, 102.26 74.08, 113.13 76.88" stroke="#000000" stroke-width="1" fill="none"></path></g><g transform="translate(418.86953905336554 70) rotate(0 56.25475608658979 37.81439609202556)"><path d="M93.18 53.44 C98.04 60.64, 102.92 67.37, 112.33 77.67 M94.08 52.16 C100.52 60.85, 105.97 68.56, 113.13 76.88" stroke="#000000" stroke-width="1" fill="none"></path></g></g><mask></mask><g stroke-linecap="round"><g transform="translate(529.8695390533655 201) rotate(0 -34.855243101827796 49.759699120670575)"><path d="M0.21 1.19 C-11.18 17.34, -57.79 81.51, -69.32 97.83 M-1.14 0.77 C-12.55 16.94, -58.57 82.14, -69.92 98.75" stroke="#000000" stroke-width="1" fill="none"></path></g><g transform="translate(529.8695390533655 201) rotate(0 -34.855243101827796 49.759699120670575)"><path d="M-60.25 70.88 C-65.64 77.8, -65.22 80.5, -67.98 99.89 M-62.5 70.52 C-65.14 78.34, -67.31 85.33, -69.1 98.74" stroke="#000000" stroke-width="1" fill="none"></path></g><g transform="translate(529.8695390533655 201) rotate(0 -34.855243101827796 49.759699120670575)"><path d="M-43.41 82.6 C-52.57 86.99, -55.83 87.13, -67.98 99.89 M-45.66 82.24 C-52.79 86.88, -59.52 90.69, -69.1 98.74" stroke="#000000" stroke-width="1" fill="none"></path></g></g><mask></mask><g stroke-linecap="round"><g transform="translate(588.8695390533655 206) rotate(0 41.58683748887847 45.98119589093142)"><path d="M0.37 -0.98 C14.01 14.18, 68.22 75.99, 81.92 91.61 M-0.89 1.13 C13.09 16.4, 70.31 78.01, 84.06 92.94" stroke="#000000" stroke-width="1" fill="none"></path></g><g transform="translate(588.8695390533655 206) rotate(0 41.58683748887847 45.98119589093142)"><path d="M55.76 77.41 C65.09 82.69, 75.19 89.44, 82.78 92.93 M57.46 80.17 C65.73 83.06, 74.88 88.01, 84.56 92.16" stroke="#000000" stroke-width="1" fill="none"></path></g><g transform="translate(588.8695390533655 206) rotate(0 41.58683748887847 45.98119589093142)"><path d="M70.82 63.47 C75.55 73.13, 80.97 84.2, 82.78 92.93 M72.52 66.23 C75.8 73.67, 79.96 83.24, 84.56 92.16" stroke="#000000" stroke-width="1" fill="none"></path></g></g><mask></mask><g transform="translate(821.8695390533655 20) rotate(0 58.499969482421875 22.5)"><text x="0" y="0" font-family="Virgil, Segoe UI Emoji" font-size="36px" fill="#000000" text-anchor="start" style="white-space: pre;" direction="ltr" dominant-baseline="text-before-edge">Level 1</text></g><g transform="translate(844.8695390533655 149) rotate(0 66.4379653930664 22.5)"><text x="0" y="0" font-family="Virgil, Segoe UI Emoji" font-size="36px" fill="#000000" text-anchor="start" style="white-space: pre;" direction="ltr" dominant-baseline="text-before-edge">Level 2</text></g><g stroke-linecap="round"><g transform="translate(839.8695390533655 173) rotate(0 -335.93148633725934 -0.37698584906758015)"><path d="M0.23 0.12 C-111.8 -0.05, -560.14 -0.73, -672.09 -0.88" stroke="#000000" stroke-width="1.5" fill="none" stroke-dasharray="1.5 7"></path></g></g><mask></mask><g stroke-linecap="round"><g transform="translate(820.8695390533655 46) rotate(0 -234.10394911877813 -0.8279125381260997)"><path d="M0.61 0.27 C-77.35 -0.25, -390.57 -1.31, -468.82 -1.92" stroke="#000000" stroke-width="1.5" fill="none" stroke-dasharray="1.5 7"></path></g></g><mask></mask><g transform="translate(861.8695390533655 319) rotate(0 65.87996673583984 22.5)"><text x="0" y="0" font-family="Virgil, Segoe UI Emoji" font-size="36px" fill="#000000" text-anchor="start" style="white-space: pre;" direction="ltr" dominant-baseline="text-before-edge">Level 3</text></g><g stroke-linecap="round"><g transform="translate(858.8695390533655 343) rotate(0 -423.8500382434577 -0.6960499454289675)"><path d="M1.17 0.73 C-140.15 0.46, -707.01 -1.67, -848.87 -2.12" stroke="#000000" stroke-width="1.5" fill="none" stroke-dasharray="1.5 7"></path></g></g><mask></mask></svg>